<?xml version="1.0" encoding="UTF-8"?>
<!DOCTYPE svg PUBLIC "-//W3C//DTD SVG 1.1//EN" "http://www.w3.org/Graphics/SVG/1.1/DTD/svg11.dtd">
<!-- Creator: CorelDRAW X8 -->
<svg xmlns="http://www.w3.org/2000/svg" xml:space="preserve" width="100%" height="100%" version="1.1" style="shape-rendering:geometricPrecision; text-rendering:geometricPrecision; image-rendering:optimizeQuality; fill-rule:evenodd; clip-rule:evenodd"
viewBox="0 0 3874 2846"
 xmlns:xlink="http://www.w3.org/1999/xlink">
 <defs>
  <style type="text/css">
   <![CDATA[
    .str0 {stroke:#333333;stroke-width:20}
    .str1 {stroke:#333333;stroke-width:15}
    .str2 {stroke:#333333;stroke-width:7.62}
    .fil11 {fill:none}
    .fil0 {fill:#333333}
    .fil9 {fill:#333333}
    .fil12 {fill:#DBD8D8}
    .fil10 {fill:#E3DFDF}
    .fil3 {fill:#F0F0F0;fill-rule:nonzero}
    .fil8 {fill:#211E1E;fill-rule:nonzero}
    .fil1 {fill:#333333;fill-rule:nonzero}
    .fil4 {fill:#A39EA0;fill-rule:nonzero}
    .fil2 {fill:#C9C7C7;fill-rule:nonzero}
    .fil5 {fill:#FAFAFA;fill-rule:nonzero}
    .fil7 {fill:white;fill-rule:nonzero}
    .fil6 {fill:url(#id4);fill-rule:nonzero}
   ]]>
  </style>
   <clipPath id="id0">
    <path d="M491 1233c258,0 467,209 467,467 0,258 -209,467 -467,467 -258,0 -467,-209 -467,-467 0,-258 209,-467 467,-467z"/>
   </clipPath>
    <mask id="id1">
  <linearGradient id="id2" gradientUnits="userSpaceOnUse" x1="313.036" y1="1620.74" x2="1031.48" y2="835.621">
   <stop offset="0" style="stop-opacity:1; stop-color:white"/>
   <stop offset="1" style="stop-opacity:0; stop-color:white"/>
  </linearGradient>
     <rect style="fill:url(#id2)" x="24" y="1233" width="934" height="934"/>
    </mask>
   <clipPath id="id3">
    <path d="M491 1233c258,0 467,209 467,467 0,258 -209,467 -467,467 -258,0 -467,-209 -467,-467 0,-258 209,-467 467,-467z"/>
   </clipPath>
  <linearGradient id="id4" gradientUnits="userSpaceOnUse" x1="3395.29" y1="146.53" x2="1689.51" y2="2312.79">
   <stop offset="0" style="stop-opacity:1; stop-color:white"/>
   <stop offset="1" style="stop-opacity:1; stop-color:#D6D6D6"/>
  </linearGradient>
 </defs>
 <g id="Capa_x0020_1">
  <metadata id="CorelCorpID_0Corel-Layer"/>
  <g id="_609208827216">
   <path class="fil0" d="M2711 2773c2,1 4,2 5,4 150,-23 287,-23 434,-40 -139,1 -284,12 -433,32 -4,1 -3,3 -6,4z"/>
   <path class="fil0" d="M2738 2586c1,1 3,2 4,4 135,-30 249,-20 378,-39 -22,-9 -57,0 -89,2 -91,6 -188,6 -288,29 -4,1 -3,3 -5,4z"/>
   <path class="fil0" d="M2845 2795c0,3 3,2 4,4 92,-8 179,-4 274,-17 -7,-8 -23,-4 -33,-3 -77,6 -160,6 -239,13 -2,1 -4,2 -6,3z"/>
   <path class="fil0" d="M2844 2694c1,2 3,1 4,3 84,-10 163,-10 242,-12 -76,-8 -160,-2 -246,9z"/>
   <path class="fil0" d="M2920 2829c1,2 2,3 3,5 67,-7 131,-7 200,-17 -65,2 -137,0 -203,12z"/>
   <path class="fil0" d="M2844 2668c0,1 1,3 2,4 85,-13 164,-14 247,-22 -77,-5 -166,-2 -249,18z"/>
   <path class="fil0" d="M2792 2536c1,2 4,0 5,2 101,-17 198,-25 294,-32 -91,-8 -192,6 -299,30z"/>
   <path class="fil0" d="M2949 2837c0,2 1,3 1,4 81,5 165,2 248,3 -14,-8 -36,-6 -55,-7 -59,-4 -126,-2 -186,-3 -3,1 -5,2 -8,3z"/>
   <path class="fil0" d="M2917 2727c2,1 3,2 4,4 60,-7 119,-13 177,-16 -9,-8 -26,-2 -40,-1 -42,3 -91,5 -134,8 -4,1 -4,4 -7,5z"/>
   <path class="fil0" d="M2862 2445c1,1 2,3 2,5 29,-3 58,-7 89,-15 -29,1 -56,-2 -91,10z"/>
   <path class="fil0" d="M2920 2472c32,2 68,-1 103,-4 -13,-7 -33,-4 -50,-2 -17,1 -35,1 -53,6z"/>
   <path class="fil0" d="M2831 2641c89,-4 184,-18 277,-30 -90,5 -180,12 -277,30z"/>
  </g>
  <g id="_609208761712">
   <g>
    <path class="fil0" d="M2711 2775c2,0 4,1 5,3 150,-23 287,-22 434,-39 -139,1 -284,11 -433,31 -4,1 -3,3 -6,5z"/>
    <path class="fil0" d="M2738 2588c1,1 3,2 4,4 135,-30 249,-20 378,-39 -22,-10 -57,0 -89,2 -91,6 -188,5 -288,29 -4,1 -3,3 -5,4z"/>
    <path class="fil0" d="M2845 2797c0,2 3,1 4,3 92,-7 179,-3 274,-17 -7,-7 -23,-3 -33,-2 -77,6 -160,6 -239,13 -2,1 -4,2 -6,3z"/>
    <path class="fil0" d="M2844 2695c1,3 3,2 4,4 84,-11 163,-11 242,-12 -76,-8 -160,-2 -246,8z"/>
    <path class="fil0" d="M2920 2831c1,2 2,3 3,5 67,-8 131,-7 200,-17 -65,1 -137,-1 -203,12z"/>
    <path class="fil0" d="M2844 2669c0,2 1,3 2,5 85,-13 164,-14 247,-22 -77,-5 -166,-2 -249,17z"/>
    <path class="fil0" d="M2792 2538c1,1 4,-1 5,1 101,-16 198,-24 294,-31 -91,-8 -192,5 -299,30z"/>
    <path class="fil0" d="M2949 2839c0,1 1,2 1,3 81,6 165,3 248,4 -14,-8 -36,-6 -55,-8 -59,-4 -126,-1 -186,-2 -3,1 -5,2 -8,3z"/>
    <path class="fil0" d="M2917 2729c2,1 3,2 4,4 60,-8 119,-13 177,-16 -9,-8 -26,-2 -40,-1 -42,3 -91,5 -134,8 -4,1 -4,3 -7,5z"/>
    <path class="fil0" d="M2862 2447c1,1 2,3 2,4 29,-3 58,-7 89,-14 -29,1 -56,-2 -91,10z"/>
    <path class="fil0" d="M2920 2474c32,2 68,-1 103,-4 -13,-7 -33,-4 -50,-3 -17,2 -35,1 -53,7z"/>
    <path class="fil0" d="M2831 2643c89,-4 184,-19 277,-30 -90,4 -180,11 -277,30z"/>
   </g>
   <path class="fil1" d="M3438 2389c0,0 -23,-47 7,-60 29,-14 30,33 49,30 19,-4 -3,-89 43,-82 46,6 12,112 12,112l-111 0z"/>
   <path class="fil1" d="M773 2383c0,0 -46,-55 -25,-97 22,-42 72,-8 104,-14 32,-6 -74,-221 94,-266l20 377 -193 0z"/>
   <path class="fil1" d="M3326 2388c0,0 -1,-62 -25,-63 -24,-2 -36,30 -48,15 -11,-15 39,-159 -26,-204l-26 253 125 -1z"/>
   <polygon class="fil1" points="3319,1052 3375,1052 3276,2040 3228,2040 "/>
   <polygon class="fil1" points="696,1029 658,1029 600,214 639,217 "/>
   <polygon class="fil1" points="3423,123 3459,123 3373,832 3354,832 "/>
   <polygon class="fil2" points="3389,394 3349,797 3822,797 3874,353 "/>
   <g>
    <polygon class="fil3" points="3802,359 3757,363 3700,797 3731,797 "/>
    <polygon class="fil3" points="3510,797 3650,797 3703,368 3559,380 "/>
   </g>
   <polygon class="fil4" points="3412,743 3421,391 3389,394 3349,797 3822,797 3825,768 "/>
   <polygon class="fil5 str0" points="1751,849 1704,135 3434,11 3204,2380 1858,2380 "/>
   <polygon class="fil6" points="1858,2380 2559,2380 2624,1010 1759,970 "/>
   <polygon class="fil3 str0" points="956,2380 2467,2380 2538,886 870,808 "/>
   <polygon class="fil1" points="1124,2380 2287,2380 2342,1190 1058,1128 "/>
   <polygon class="fil3" points="1172,2380 2234,2380 2285,1241 1112,1182 "/>
   <polygon class="fil2" points="1115,1253 2089,1392 2156,2380 2234,2380 2285,1241 1112,1182 "/>
   <polygon class="fil1" points="1814,2185 1803,2261 1594,2261 1589,2197 "/>
   <g>
    <polygon class="fil4" points="1935,250 1974,782 3132,797 3166,191 "/>
    <polygon class="fil7 str1" points="1915,236 1955,768 3112,783 3147,177 "/>
    <polygon class="fil1" points="1959,272 1993,731 3072,743 3104,217 "/>
    <polygon class="fil2" points="1978,288 2010,715 3055,725 3085,235 "/>
    <g>
     <polygon class="fil3" points="2545,273 2508,274 2442,719 2472,719 "/>
     <polygon class="fil3" points="2180,716 2361,718 2421,276 2248,281 "/>
    </g>
    <polygon class="fil4" points="1978,288 1982,347 2995,390 3031,725 3055,725 3085,235 "/>
   </g>
   <g>
    <polygon class="fil1" points="3135,2291 2666,2277 2672,2323 2641,2322 2648,2380 3160,2380 3166,2313 3133,2312 "/>
    <polygon class="fil1" points="2660,2293 2667,1301 3158,1321 3099,2305 "/>
    <polygon class="fil7" points="3140,2323 2615,2308 2624,2380 3133,2380 "/>
    <polygon class="fil7" points="3112,2278 2641,2263 2649,2335 3106,2335 "/>
    <polygon class="fil1" points="2646,2309 3107,2322 3108,2316 2644,2289 "/>
    <polygon class="fil7 str0" points="2674,2264 2682,1273 3140,1292 3081,2277 "/>
    <polygon class="fil3 str0" points="2712,2265 2718,1314 3097,1332 3048,2277 "/>
    <path class="fil1" d="M3044 1836c0,11 -8,19 -17,19 -10,0 -17,-8 -17,-19 0,-10 7,-18 17,-18 9,0 17,8 17,18z"/>
    <polygon class="fil1" points="3010,1877 3044,1881 3035,1957 3014,1957 "/>
   </g>
   <polygon class="fil1" points="974,2380 899,832 2192,870 870,808 956,2380 "/>
   <path class="fil1" d="M536 2391c0,0 12,0 35,-1 23,-1 57,-3 99,-4 43,-2 94,-4 154,-6 59,-2 126,-4 199,-5 73,-2 152,-3 236,-5 83,-2 172,-4 263,-4 182,-2 377,-3 572,-4 195,1 389,2 572,4 91,0 179,2 263,4 84,2 163,3 236,5 73,1 140,3 199,5 59,2 111,4 154,6 42,1 76,3 98,4 23,1 35,1 35,1l1 0c0,0 1,1 1,2 0,1 -1,2 -2,2 0,0 -778,1 -1557,2 -779,-1 -1558,-2 -1558,-2 -1,0 -1,-1 -1,-2 0,-1 0,-2 1,-2l0 0z"/>
   <path class="fil8" d="M675 2395c-1,0 -2,0 -2,-1 -3,-1 -4,-5 -2,-7 2,-5 -7,-25 -15,-36 -2,-3 -2,-6 0,-8 3,-2 6,-2 8,1 0,0 24,33 16,48 -1,2 -3,3 -5,3z"/>
   <path class="fil8" d="M695 2394c0,0 -1,0 -2,-1 -2,-1 -4,-4 -3,-7 1,-2 1,-5 1,-8 -1,-5 -1,-13 3,-18 2,-2 5,-2 8,0 2,2 2,5 0,8 -1,2 -1,6 -1,10 1,4 1,8 -1,12 0,2 -2,4 -5,4z"/>
   <path class="fil1" d="M1083 2389c-1,0 -1,0 -2,-1 -3,-1 -4,-4 -3,-7 4,-11 -6,-37 -16,-42 -3,-2 -4,-5 -3,-8 1,-3 5,-4 7,-3 16,8 28,40 22,57 -1,2 -3,4 -5,4z"/>
   <path class="fil1" d="M1054 2390c-1,0 -2,0 -3,-1 -2,-1 -3,-5 -2,-7 0,-6 -19,-23 -25,-24 -3,-1 -5,-4 -4,-7 0,-3 3,-5 6,-4 8,1 27,16 32,28 3,6 2,10 1,12 -1,2 -3,3 -5,3z"/>
   <path class="fil1" d="M1445 2381c-1,0 -1,0 -2,0 -2,0 -4,-4 -4,-7 1,-2 1,-6 1,-9 0,-4 0,-8 1,-12 2,-10 6,-17 12,-24 2,-2 6,-3 8,-1 2,3 2,6 0,9 -5,6 -8,11 -9,19 -1,3 -1,6 -1,9 0,4 0,8 -1,12 -1,3 -3,4 -5,4z"/>
   <path class="fil1" d="M1427 2383c-1,0 -2,0 -2,0 -3,-1 -4,-5 -4,-8 2,-4 -7,-18 -14,-25 -2,-2 -3,-6 -1,-8 2,-2 6,-3 8,0 5,4 22,24 18,37 -1,2 -3,4 -5,4z"/>
   <path class="fil1" d="M1848 2378c-3,0 -5,-3 -5,-6 0,-16 1,-32 12,-46 1,-3 5,-3 7,-1 3,2 3,5 1,8 -8,11 -9,25 -9,39 0,3 -3,6 -6,6z"/>
   <path class="fil1" d="M2432 2382c-1,0 -2,0 -2,-1 -3,-1 -4,-5 -2,-8 3,-5 -7,-22 -14,-28 -2,-3 -3,-6 -1,-9 2,-2 6,-2 8,0 8,7 23,29 16,43 -1,2 -3,3 -5,3z"/>
   <path class="fil1" d="M2491 2381c-1,0 -2,0 -3,0 -3,-2 -3,-6 -2,-8 1,-2 0,-9 0,-13 0,-2 0,-5 0,-7 0,-10 2,-64 28,-74 3,-1 6,1 7,4 1,3 0,6 -3,7 -17,7 -21,44 -22,64 0,1 1,3 1,5 0,7 1,15 -2,20 -1,1 -3,2 -4,2z"/>
   <path class="fil1" d="M3352 2389l-5 -1c0,-18 0,-45 23,-53 3,-1 6,1 7,4 1,3 -1,6 -4,7 -14,5 -15,21 -16,42l-5 1z"/>
   <path class="fil1" d="M3367 2393c-3,0 -5,-2 -6,-6 0,-13 14,-22 24,-23 3,0 5,2 5,5 0,4 -2,6 -5,7 -6,0 -13,6 -13,11 0,3 -2,6 -5,6 0,0 0,0 0,0z"/>
   <polygon class="fil3 str0" points="3265,832 3856,832 3852,971 3265,959 "/>
   <polygon class="fil2" points="3302,842 3276,950 3842,964 3843,943 3373,929 3384,842 "/>
   <path class="fil0" d="M3352 825l1 -2c-6,-2 -6,-2 -11,-7l0 0 -1 0c-12,-11 -25,-26 -37,-36 -2,-2 -5,-3 -7,-5l-4 -3c-2,-1 -3,-2 -3,-3l0 0c-3,-1 -2,-6 -1,-8 12,-3 24,12 34,21 11,10 20,22 29,27 -2,-7 2,-14 -1,-21 -13,-4 -21,-17 -33,-27 -8,-6 -23,-11 -19,-21 9,-4 18,5 26,12 9,8 18,19 27,25 1,-7 -1,-14 1,-21 -11,-11 -27,-23 -43,-35 -8,-5 -20,-10 -17,-20 8,-5 16,5 23,10 14,10 29,22 39,31 1,-6 2,-12 0,-17 -12,-13 -45,-24 -43,-39 13,-4 31,19 46,26 1,-7 1,-14 -1,-20 -13,-13 -46,-25 -44,-40 13,-4 31,19 46,27 2,-7 3,-15 4,-22 -12,-13 -43,-23 -42,-38 12,-5 29,17 42,24 3,-6 2,-12 4,-18l-30 -22c-10,-6 -25,-13 -22,-23 16,-3 36,23 53,32 2,-6 3,-12 4,-17l-31 -23c-11,-7 -26,-14 -23,-24 8,-5 17,6 26,12l29 21c2,-9 1,-17 2,-26 -7,-7 -19,-12 -29,-19 -11,-6 -26,-14 -23,-24 10,-5 22,11 34,18 7,4 15,7 20,10 0,-8 2,-18 2,-27 -10,-6 -24,-16 -35,-23 -6,-3 -16,-5 -12,-13 15,-5 34,18 50,24 2,-8 5,-16 3,-23 -8,-4 -20,-11 -31,-17 -9,-6 -23,-13 -20,-23 10,-4 19,9 29,15 9,5 18,10 25,14 2,-8 2,-16 1,-23 -12,-11 -42,-16 -41,-33 13,-2 29,16 44,22 0,-6 4,-13 1,-19 -12,-10 -45,-15 -44,-33 8,-5 15,5 22,9 9,5 19,9 26,12 -1,-7 4,-15 1,-21 -13,-12 -46,-14 -45,-31 15,-3 32,15 48,18 0,-17 -46,-23 -44,-42 13,-3 29,15 44,22 26,5 16,84 10,115 -3,19 -8,39 -10,58 -3,19 -4,38 -5,57 -4,39 -14,77 -16,115 -1,11 0,22 -2,34 -3,29 -3,52 -4,81 -2,45 -1,24 -22,17z"/>
   <g>
    <path class="fil0" d="M2934 1391c-24,16 -48,34 -71,55 7,-3 12,-9 18,-13 17,-14 35,-27 52,-40 1,-1 0,-1 1,-2z"/>
    <path class="fil0" d="M2988 1438c0,0 -1,0 -2,-1 -31,28 -65,49 -97,75 34,-21 67,-45 99,-73 0,0 0,-1 0,-1z"/>
    <path class="fil0" d="M2901 1404c-1,-1 -1,0 -2,0 -21,14 -42,28 -62,45 22,-12 42,-30 63,-42 1,-1 1,-2 1,-3z"/>
    <path class="fil0" d="M3024 1490c-1,0 -2,0 -2,0 -26,28 -56,42 -84,66 8,-1 14,-8 22,-14 20,-15 44,-29 63,-50 1,-1 0,-1 1,-2z"/>
    <path class="fil0" d="M2951 1452c-1,-1 -1,0 -2,-1 -21,16 -43,28 -63,45 4,1 6,-2 9,-4 17,-13 37,-25 55,-39 0,0 0,-1 1,-1z"/>
    <path class="fil0" d="M2875 1416c-13,5 -25,15 -38,22 -12,8 -25,15 -37,24 6,-1 12,-5 19,-10 18,-11 38,-23 56,-36z"/>
    <path class="fil0" d="M2974 1478c-1,-1 -2,0 -2,0 -18,15 -37,26 -56,39 20,-10 39,-24 58,-39z"/>
    <path class="fil0" d="M2925 1454c-1,0 -1,-1 -2,-1 -15,12 -30,21 -45,34 16,-10 34,-20 47,-33z"/>
    <path class="fil0" d="M2980 1485c-1,-1 -1,-1 -2,-1 -18,16 -37,28 -55,42 20,-10 41,-24 57,-41z"/>
    <path class="fil0" d="M2837 1408c0,0 0,-1 -1,-1 -10,5 -18,12 -27,18 -9,5 -19,10 -28,18 20,-8 38,-21 56,-35z"/>
    <path class="fil0" d="M3022 1511c-1,0 -1,1 -2,1 -21,19 -43,35 -64,51 23,-11 45,-29 66,-52z"/>
    <path class="fil0" d="M2823 1404c-1,0 -1,-1 -2,-1 -15,12 -32,20 -47,31 17,-7 33,-17 49,-30z"/>
    <path class="fil0" d="M2916 1456c0,0 -1,0 -1,-1 -21,11 -41,24 -61,36 5,0 10,-4 15,-6 15,-8 31,-18 46,-27 0,-1 1,-1 1,-2z"/>
    <path class="fil0" d="M2948 1480c0,0 -1,0 -2,0 -12,10 -26,20 -39,30 4,1 7,-3 10,-6 10,-7 21,-15 31,-22 1,-1 0,-1 0,-2z"/>
    <path class="fil0" d="M2803 1405c0,0 -1,0 -1,-1 -12,8 -24,13 -36,21 13,-5 26,-11 37,-20z"/>
    <path class="fil0" d="M2886 1457c-5,0 -11,6 -16,10 5,-2 11,-6 16,-10z"/>
    <path class="fil0" d="M2785 1403c-9,4 -19,10 -29,15 11,-1 19,-9 29,-13 1,-1 0,-1 0,-2z"/>
    <path class="fil0" d="M3025 1546c-1,-1 -1,-1 -2,-1 -6,5 -12,10 -18,17 7,-5 14,-8 20,-16z"/>
    <path class="fil0" d="M3005 1547c-9,4 -16,10 -24,16 4,0 8,-4 12,-6 4,-3 9,-6 12,-10z"/>
    <path class="fil0" d="M2989 1490c-21,14 -41,32 -61,49 21,-15 41,-30 61,-49z"/>
   </g>
   <path class="fil1" d="M2238 2307l-1070 0 0 -12 1070 0 0 12zm6 -151l-1083 0 -1 -12 1085 0 -1 12zm-1093 -188l1101 15 0 12 -1100 -15 -1 -12zm1108 -134l-1115 0 0 -12 1115 0 0 12zm-1124 -180l1132 0 -1 11 -1130 0 -1 -11zm1137 -127l-1144 -27 -1 -12 1146 27 -1 12zm-1152 -181l1158 57 -1 11 -1157 -56 0 -12zm1162 -38l-1168 -78 -1 -12 1169 79 0 11z"/>
   <polygon class="fil5 str0" points="1751,849 870,808 894,1052 698,1052 637,191 1713,272 "/>
   <polygon class="fil2" points="1625,725 790,659 808,1042 883,1042 870,808 1740,839 1704,282 1533,268 "/>
   <g>
    <path class="fil0" d="M1149 261c-40,79 -77,161 -107,249 15,-17 19,-40 28,-61 25,-60 55,-121 79,-183 3,-2 1,-3 0,-5z"/>
    <path class="fil0" d="M1364 305c-2,1 -3,2 -6,2 -42,122 -102,225 -149,342 60,-105 112,-218 157,-338 0,-3 -2,-4 -2,-6z"/>
    <path class="fil0" d="M1081 344c-3,-1 -3,2 -6,2 -33,70 -70,137 -100,211 42,-63 70,-140 108,-206 0,-4 -2,-5 -2,-7z"/>
    <path class="fil0" d="M1536 394c-1,1 -3,2 -6,2 -29,112 -88,195 -125,299 19,-13 25,-43 37,-68 33,-71 75,-144 96,-228 0,-3 -2,-3 -2,-5z"/>
    <path class="fil0" d="M1284 398c-3,-1 -3,1 -5,1 -33,73 -74,136 -102,213 11,-2 13,-16 17,-24 27,-60 63,-122 90,-185 0,-2 0,-4 0,-5z"/>
    <path class="fil0" d="M1029 412c-28,36 -46,78 -68,117 -23,39 -46,77 -65,118 16,-11 25,-32 37,-53 31,-58 69,-119 96,-182z"/>
    <path class="fil0" d="M1384 434c-3,0 -3,2 -5,2 -26,68 -60,127 -93,187 41,-55 71,-120 98,-189z"/>
    <path class="fil0" d="M1218 442c-2,0 -4,0 -6,0 -22,54 -50,101 -70,157 27,-50 60,-103 76,-157z"/>
    <path class="fil0" d="M1410 444c-2,0 -3,0 -5,0 -24,69 -58,129 -85,194 38,-56 73,-124 90,-194z"/>
    <path class="fil0" d="M916 447c-1,0 -2,0 -3,0 -19,28 -32,58 -49,87 -15,29 -36,57 -46,89 42,-49 72,-111 98,-176z"/>
    <path class="fil0" d="M1562 453c-2,0 -1,4 -4,4 -27,82 -62,157 -96,233 47,-65 78,-147 100,-237z"/>
    <path class="fil0" d="M872 459c-2,0 -4,0 -6,0 -24,53 -56,99 -81,151 35,-44 65,-93 87,-151z"/>
    <path class="fil0" d="M1197 460c-1,0 -2,0 -3,0 -40,59 -75,123 -111,185 14,-7 22,-25 31,-38 30,-43 56,-94 83,-139 0,-3 0,-5 0,-8z"/>
    <path class="fil0" d="M1320 477c-2,1 -3,2 -6,2 -19,48 -39,94 -61,139 11,-4 14,-19 18,-30 16,-33 35,-70 50,-104 1,-3 -1,-4 -1,-7z"/>
    <path class="fil0" d="M822 490c-2,0 -4,0 -6,0 -19,39 -46,69 -64,109 26,-33 52,-67 70,-109z"/>
    <path class="fil0" d="M1120 509c-13,6 -23,31 -30,49 12,-14 21,-32 30,-49z"/>
    <path class="fil0" d="M770 510c-20,26 -38,55 -55,84 26,-18 37,-51 57,-76 1,-4 -1,-5 -2,-8z"/>
    <path class="fil0" d="M1621 540c-2,0 -4,0 -5,0 -10,23 -19,46 -24,72 11,-22 26,-41 29,-72z"/>
    <path class="fil0" d="M1569 573c-16,24 -28,52 -40,80 12,-8 17,-24 24,-37 6,-13 14,-27 16,-43z"/>
    <path class="fil0" d="M1442 444c-35,69 -62,145 -91,220 34,-69 67,-140 91,-220z"/>
   </g>
  </g>
  <path class="fil9" d="M931 1541c112,272 -39,639 -450,666 -576,0 -634,-782 -180,-934 -163,73 -277,236 -277,427 0,258 209,467 467,467 258,0 467,-209 467,-467 0,-56 -9,-110 -27,-159z"/>
  <g style="clip-path:url(#id0)">
   <polygon class="fil10" style="mask:url(#id1)" points="24,1233 958,1233 958,2167 24,2167 "/>
  </g>
  <g style="clip-path:url(#id3)">
   <g id="_609208791440">
    <g>
     <polygon id="1" class="fil3" points="861,1334 797,1307 387,2197 428,2221 "/>
     <polygon class="fil3" points="134,2051 320,2158 722,1275 520,1191 "/>
    </g>
   </g>
  </g>
  <path class="fil11" d="M491 1233c258,0 467,209 467,467 0,258 -209,467 -467,467 -258,0 -467,-209 -467,-467 0,-258 209,-467 467,-467z"/>
  <g id="_609208794160">
   <path class="fil9" d="M648 1491l-28 0 0 -36 -56 0 0 36 -166 0 0 -36 -56 0 0 36 -28 0c-31,0 -56,25 -56,56 -15,144 -5,238 0,355 0,30 25,56 56,56 129,9 210,0 334,0 31,0 52,-14 56,-56 4,-31 6,-84 6,-118 -2,0 -26,25 -32,28 0,38 0,88 -4,115 -138,0 -246,3 -384,0 -1,-26 -14,-177 -1,-333 137,0 251,-20 384,0 0,27 1,46 2,75 3,-3 29,-25 32,-25 -2,-35 -3,-61 -3,-97 0,-31 -25,-56 -56,-56l0 0z"/>
   <g>
    <path class="fil9" d="M340 1649l100 0c11,0 19,8 19,19l0 100c0,11 -8,19 -19,19l-100 0c-10,0 -19,-8 -19,-19l0 -100c0,-11 9,-19 19,-19zm89 30l-78 0 0 78 78 0 0 -78z"/>
   </g>
   <path class="fil9 str2" d="M736 1742l19 -19c10,-11 10,-27 0,-38l-19 -18c-10,-11 -27,-11 -37,0l-19 18 56 57zm-19 18l-140 141 -56 0 0 -57 140 -140 56 56z"/>
  </g>
  <polygon class="fil12 str2" points="704,1746 562,1888 534,1859 675,1718 "/>
 </g>
</svg>
