<?xml version="1.0" encoding="UTF-8"?>
<!DOCTYPE svg PUBLIC "-//W3C//DTD SVG 1.1//EN" "http://www.w3.org/Graphics/SVG/1.1/DTD/svg11.dtd">
<!-- Creator: CorelDRAW X8 -->
<svg xmlns="http://www.w3.org/2000/svg" xml:space="preserve" width="100%" height="100%" version="1.1" style="shape-rendering:geometricPrecision; text-rendering:geometricPrecision; image-rendering:optimizeQuality; fill-rule:evenodd; clip-rule:evenodd"
viewBox="0 0 3990 2868"
 xmlns:xlink="http://www.w3.org/1999/xlink">
 <defs>
  <style type="text/css">
   <![CDATA[
    .str0 {stroke:#333333;stroke-width:20}
    .str1 {stroke:#333333;stroke-width:15}
    .fil11 {fill:none}
    .fil0 {fill:#333333}
    .fil9 {fill:#333333}
    .fil10 {fill:#E3DFDF}
    .fil3 {fill:#F0F0F0;fill-rule:nonzero}
    .fil8 {fill:#211E1E;fill-rule:nonzero}
    .fil1 {fill:#333333;fill-rule:nonzero}
    .fil12 {fill:#333333;fill-rule:nonzero}
    .fil4 {fill:#A39EA0;fill-rule:nonzero}
    .fil2 {fill:#C9C7C7;fill-rule:nonzero}
    .fil5 {fill:#FAFAFA;fill-rule:nonzero}
    .fil7 {fill:white;fill-rule:nonzero}
    .fil6 {fill:url(#id4);fill-rule:nonzero}
   ]]>
  </style>
   <clipPath id="id0">
    <path d="M521 1159c273,0 495,222 495,496 0,273 -222,495 -495,495 -274,0 -495,-222 -495,-495 0,-274 221,-496 495,-496z"/>
   </clipPath>
    <mask id="id1">
  <linearGradient id="id2" gradientUnits="userSpaceOnUse" x1="331.85" y1="1571.04" x2="1093.48" y2="738.73">
   <stop offset="0" style="stop-opacity:1; stop-color:white"/>
   <stop offset="1" style="stop-opacity:0; stop-color:white"/>
  </linearGradient>
     <rect style="fill:url(#id2)" x="26" y="1159" width="990" height="990"/>
    </mask>
   <clipPath id="id3">
    <path d="M521 1159c273,0 495,222 495,496 0,273 -222,495 -495,495 -274,0 -495,-222 -495,-495 0,-274 221,-496 495,-496z"/>
   </clipPath>
  <linearGradient id="id4" gradientUnits="userSpaceOnUse" x1="3511.71" y1="146.53" x2="1805.93" y2="2312.79">
   <stop offset="0" style="stop-opacity:1; stop-color:white"/>
   <stop offset="1" style="stop-opacity:1; stop-color:#D6D6D6"/>
  </linearGradient>
 </defs>
 <g id="Capa_x0020_1">
  <metadata id="CorelCorpID_0Corel-Layer"/>
  <g id="_609208759536">
   <path class="fil0" d="M2874 2793c2,0 4,1 5,4 159,-25 305,-24 461,-42 -148,0 -302,12 -460,33 -4,1 -3,3 -6,5z"/>
   <path class="fil0" d="M2902 2595c2,1 4,1 5,4 143,-32 264,-22 401,-42 -24,-10 -61,0 -95,2 -97,7 -199,7 -305,31 -4,1 -3,3 -6,5z"/>
   <path class="fil0" d="M3016 2816c0,3 3,2 4,4 98,-8 190,-4 291,-18 -8,-9 -25,-4 -36,-3 -81,6 -169,6 -253,14 -2,1 -4,2 -6,3z"/>
   <path class="fil0" d="M3015 2708c1,3 4,2 5,4 89,-11 172,-11 256,-13 -81,-8 -170,-2 -261,9z"/>
   <path class="fil0" d="M3096 2852c1,2 2,4 2,5 72,-8 139,-7 213,-18 -69,2 -145,0 -215,13z"/>
   <path class="fil0" d="M3015 2681c0,1 1,3 2,5 90,-14 174,-15 262,-24 -81,-5 -176,-1 -264,19z"/>
   <path class="fil0" d="M2959 2542c2,1 5,-1 6,1 107,-17 210,-26 312,-34 -96,-8 -204,6 -318,33z"/>
   <path class="fil0" d="M3126 2861c1,1 1,2 2,3 85,6 174,3 262,4 -15,-9 -38,-6 -59,-8 -61,-4 -132,-1 -196,-3 -3,1 -6,3 -9,4z"/>
   <path class="fil0" d="M3092 2744c2,1 4,2 5,4 64,-8 126,-13 187,-16 -9,-9 -28,-3 -42,-2 -45,4 -97,5 -142,9 -5,1 -5,3 -8,5z"/>
   <path class="fil0" d="M3034 2445c1,1 2,3 3,5 30,-3 61,-8 94,-16 -32,2 -60,-2 -97,11z"/>
   <path class="fil0" d="M3095 2474c35,2 72,-1 110,-5 -14,-7 -35,-4 -53,-2 -18,1 -38,1 -57,7z"/>
   <path class="fil0" d="M3001 2653c95,-5 195,-20 294,-32 -95,5 -191,12 -294,32z"/>
  </g>
  <g id="_609208761936">
   <g>
    <path class="fil0" d="M2828 2775c1,0 3,1 4,3 150,-23 288,-22 435,-39 -140,1 -284,11 -434,31 -3,1 -3,3 -5,5z"/>
    <path class="fil0" d="M2854 2588c2,1 3,2 4,4 135,-30 250,-20 379,-39 -23,-10 -58,0 -90,2 -91,6 -188,5 -288,29 -3,1 -2,3 -5,4z"/>
    <path class="fil0" d="M2961 2797c1,2 3,1 4,3 93,-7 179,-3 274,-17 -7,-7 -23,-3 -33,-2 -77,6 -159,6 -239,13 -2,1 -4,2 -6,3z"/>
    <path class="fil0" d="M2961 2695c0,3 3,2 4,4 84,-11 162,-11 242,-12 -77,-8 -161,-2 -246,8z"/>
    <path class="fil0" d="M3037 2831c1,2 1,3 2,5 68,-8 131,-7 200,-17 -65,1 -136,-1 -202,12z"/>
    <path class="fil0" d="M2960 2669c1,2 2,3 2,5 86,-13 164,-14 247,-22 -76,-5 -165,-2 -249,17z"/>
    <path class="fil0" d="M2908 2538c1,1 5,-1 6,1 100,-16 197,-24 293,-31 -90,-8 -192,5 -299,30z"/>
    <path class="fil0" d="M3065 2839c1,1 1,2 2,3 80,6 165,3 247,4 -14,-8 -36,-6 -55,-8 -58,-4 -125,-1 -186,-2 -2,1 -5,2 -8,3z"/>
    <path class="fil0" d="M3034 2729c1,1 3,2 4,4 60,-8 119,-13 176,-16 -8,-8 -26,-2 -40,-1 -42,3 -91,5 -133,8 -5,1 -5,3 -7,5z"/>
    <path class="fil0" d="M2979 2447c0,1 1,3 2,4 28,-3 57,-7 88,-14 -29,1 -56,-2 -90,10z"/>
    <path class="fil0" d="M3036 2474c33,2 68,-1 104,-4 -14,-7 -33,-4 -51,-3 -16,2 -35,1 -53,7z"/>
    <path class="fil0" d="M2947 2643c90,-4 184,-19 277,-30 -89,4 -180,11 -277,30z"/>
   </g>
   <path class="fil1" d="M3555 2389c0,0 -23,-47 6,-60 30,-14 31,33 49,30 19,-4 -2,-89 43,-82 46,6 12,112 12,112l-110 0z"/>
   <path class="fil1" d="M889 2383c0,0 -46,-55 -24,-97 21,-42 71,-8 103,-14 32,-6 -74,-221 94,-266l20 377 -193 0z"/>
   <path class="fil1" d="M3442 2388c0,0 0,-62 -25,-63 -24,-2 -36,30 -47,15 -12,-15 38,-159 -27,-204l-25 253 124 -1z"/>
   <polygon class="fil1" points="3435,1052 3492,1052 3392,2040 3344,2040 "/>
   <polygon class="fil1" points="813,1029 774,1029 717,214 755,217 "/>
   <polygon class="fil1" points="3539,123 3575,123 3489,832 3471,832 "/>
   <polygon class="fil2" points="3505,394 3466,797 3938,797 3990,353 "/>
   <g>
    <polygon class="fil3" points="3919,359 3873,363 3817,797 3847,797 "/>
    <polygon class="fil3" points="3626,797 3766,797 3819,368 3675,380 "/>
   </g>
   <polygon class="fil4" points="3528,743 3538,391 3505,394 3466,797 3938,797 3942,768 "/>
   <polygon class="fil5 str0" points="1867,849 1821,135 3550,11 3321,2380 1974,2380 "/>
   <polygon class="fil6" points="1974,2380 2675,2380 2741,1010 1875,970 "/>
   <polygon class="fil3 str0" points="1072,2380 2583,2380 2655,886 986,808 "/>
   <polygon class="fil1" points="1240,2380 2403,2380 2459,1190 1174,1128 "/>
   <polygon class="fil3" points="1288,2380 2351,2380 2401,1241 1228,1182 "/>
   <polygon class="fil2" points="1232,1253 2205,1392 2273,2380 2351,2380 2401,1241 1228,1182 "/>
   <polygon class="fil1" points="1931,2185 1920,2261 1710,2261 1705,2197 "/>
   <g>
    <polygon class="fil4" points="2051,250 2091,782 3248,797 3283,191 "/>
    <polygon class="fil7 str1" points="2032,236 2071,768 3229,783 3263,177 "/>
    <polygon class="fil1" points="2075,272 2109,731 3189,743 3220,217 "/>
    <polygon class="fil2" points="2095,288 2126,715 3171,725 3201,235 "/>
    <g>
     <polygon class="fil3" points="2662,273 2625,274 2559,719 2589,719 "/>
     <polygon class="fil3" points="2296,716 2478,718 2538,276 2364,281 "/>
    </g>
    <polygon class="fil4" points="2095,288 2099,347 3112,390 3147,725 3171,725 3201,235 "/>
   </g>
   <g>
    <polygon class="fil1" points="3251,2291 2783,2277 2788,2323 2757,2322 2765,2380 3277,2380 3282,2313 3249,2312 "/>
    <polygon class="fil1" points="2777,2293 2784,1301 3275,1321 3215,2305 "/>
    <polygon class="fil7" points="3257,2323 2732,2308 2741,2380 3249,2380 "/>
    <polygon class="fil7" points="3229,2278 2757,2263 2765,2335 3222,2335 "/>
    <polygon class="fil1" points="2762,2309 3224,2322 3224,2316 2760,2289 "/>
    <polygon class="fil7 str0" points="2791,2264 2798,1273 3257,1292 3197,2277 "/>
    <polygon class="fil3 str0" points="2828,2265 2834,1314 3214,1332 3165,2277 "/>
    <path class="fil1" d="M3160 1836c0,11 -8,19 -17,19 -9,0 -17,-8 -17,-19 0,-10 8,-18 17,-18 9,0 17,8 17,18z"/>
    <polygon class="fil1" points="3126,1877 3160,1881 3152,1957 3131,1957 "/>
   </g>
   <polygon class="fil1" points="1090,2380 1015,832 2308,870 986,808 1072,2380 "/>
   <path class="fil1" d="M653 2391c0,0 12,0 35,-1 23,-1 56,-3 99,-4 42,-2 94,-4 153,-6 60,-2 126,-4 199,-5 73,-2 153,-3 236,-5 84,-2 172,-4 263,-4 183,-2 378,-3 572,-4 195,1 390,2 572,4 91,0 180,2 263,4 84,2 163,3 236,5 73,1 140,3 199,5 60,2 111,4 154,6 43,1 76,3 99,4 23,1 35,1 35,1l0 0c1,0 2,1 1,2 0,1 0,2 -1,2 0,0 -779,1 -1558,2 -778,-1 -1557,-2 -1557,-2 -1,0 -2,-1 -2,-2 0,-1 1,-2 2,-2l0 0z"/>
   <path class="fil8" d="M792 2395c-1,0 -2,0 -3,-1 -3,-1 -3,-5 -2,-7 2,-5 -7,-25 -15,-36 -2,-3 -1,-6 1,-8 2,-2 6,-2 7,1 1,0 24,33 16,48 -1,2 -2,3 -4,3z"/>
   <path class="fil8" d="M812 2394c-1,0 -2,0 -2,-1 -3,-1 -4,-4 -3,-7 0,-2 0,-5 0,-8 0,-5 -1,-13 4,-18 1,-2 5,-2 7,0 2,2 3,5 1,8 -2,2 -2,6 -1,10 0,4 0,8 -1,12 -1,2 -3,4 -5,4z"/>
   <path class="fil1" d="M1199 2389c0,0 -1,0 -2,-1 -2,-1 -4,-4 -3,-7 4,-11 -6,-37 -16,-42 -3,-2 -4,-5 -2,-8 1,-3 4,-4 7,-3 15,8 27,40 21,57 -1,2 -3,4 -5,4z"/>
   <path class="fil1" d="M1170 2390c-1,0 -1,0 -2,-1 -3,-1 -4,-5 -2,-7 0,-6 -19,-23 -26,-24 -2,-1 -4,-4 -4,-7 1,-3 4,-5 7,-4 7,1 27,16 32,28 2,6 1,10 0,12 -1,2 -3,3 -5,3z"/>
   <path class="fil1" d="M1561 2381c0,0 -1,0 -1,0 -3,0 -5,-4 -4,-7 0,-2 0,-6 1,-9 0,-4 0,-8 1,-12 2,-10 6,-17 12,-24 2,-2 5,-3 7,-1 3,3 3,6 1,9 -5,6 -8,11 -10,19 -1,3 -1,6 -1,9 0,4 0,8 -1,12 0,3 -2,4 -5,4z"/>
   <path class="fil1" d="M1543 2383c-1,0 -1,0 -2,0 -3,-1 -4,-5 -3,-8 1,-4 -8,-18 -15,-25 -2,-2 -2,-6 0,-8 2,-2 5,-3 7,0 5,4 22,24 18,37 -1,2 -3,4 -5,4z"/>
   <path class="fil1" d="M1965 2378c-3,0 -6,-3 -6,-6 0,-16 2,-32 12,-46 2,-3 5,-3 8,-1 2,2 2,5 1,8 -9,11 -10,25 -10,39 0,3 -2,6 -5,6z"/>
   <path class="fil1" d="M2549 2382c-1,0 -2,0 -3,-1 -3,-1 -3,-5 -2,-8 3,-5 -6,-22 -14,-28 -2,-3 -2,-6 0,-9 2,-2 5,-2 7,0 8,7 24,29 16,43 -1,2 -2,3 -4,3z"/>
   <path class="fil1" d="M2607 2381c-1,0 -2,0 -3,0 -2,-2 -3,-6 -2,-8 1,-2 1,-9 1,-13 -1,-2 -1,-5 -1,-7 0,-10 2,-64 29,-74 3,-1 6,1 7,4 1,3 -1,6 -4,7 -16,7 -21,44 -21,64 0,1 0,3 0,5 1,7 1,15 -1,20 -1,1 -3,2 -5,2z"/>
   <path class="fil1" d="M3468 2389l-5 -1c0,-18 1,-45 23,-53 3,-1 6,1 7,4 1,3 -1,6 -3,7 -15,5 -16,21 -16,42l-6 1z"/>
   <path class="fil1" d="M3483 2393c-3,0 -5,-2 -5,-6 -1,-13 13,-22 23,-23 3,0 5,2 6,5 0,4 -2,6 -5,7 -6,0 -14,6 -13,11 0,3 -3,6 -6,6 0,0 0,0 0,0z"/>
   <polygon class="fil3 str0" points="3382,832 3973,832 3969,971 3382,959 "/>
   <polygon class="fil2" points="3419,842 3392,950 3959,964 3959,943 3489,929 3500,842 "/>
   <path class="fil0" d="M3469 825l1 -2c-6,-2 -6,-2 -12,-7l1 0 -1 0c-13,-11 -25,-26 -38,-36 -2,-2 -4,-3 -6,-5l-5 -3c-1,-1 -2,-2 -3,-3l0 0c-2,-1 -1,-6 0,-8 12,-3 23,12 33,21 11,10 20,22 29,27 -1,-7 2,-14 0,-21 -14,-4 -22,-17 -33,-27 -8,-6 -23,-11 -19,-21 8,-4 18,5 25,12 10,8 18,19 27,25 2,-7 0,-14 2,-21 -11,-11 -28,-23 -43,-35 -8,-5 -21,-10 -17,-20 7,-5 15,5 23,10 14,10 29,22 38,31 1,-6 2,-12 1,-17 -13,-13 -45,-24 -43,-39 13,-4 30,19 45,26 1,-7 1,-14 -1,-20 -12,-13 -46,-25 -44,-40 14,-4 31,19 47,27 1,-7 3,-15 4,-22 -13,-13 -44,-23 -42,-38 12,-5 28,17 42,24 2,-6 2,-12 3,-18l-30 -22c-9,-6 -25,-13 -21,-23 15,-3 35,23 53,32 2,-6 3,-12 3,-17l-31 -23c-10,-7 -26,-14 -23,-24 9,-5 18,6 27,12l28 21c2,-9 2,-17 3,-26 -8,-7 -20,-12 -30,-19 -10,-6 -25,-14 -23,-24 11,-5 23,11 34,18 8,4 15,7 20,10 0,-8 2,-18 3,-27 -11,-6 -25,-16 -36,-23 -5,-3 -16,-5 -11,-13 14,-5 33,18 49,24 2,-8 6,-16 4,-23 -8,-4 -21,-11 -31,-17 -10,-6 -24,-13 -21,-23 10,-4 20,9 29,15 9,5 19,10 26,14 1,-8 2,-16 0,-23 -12,-11 -42,-16 -41,-33 13,-2 30,16 44,22 1,-6 4,-13 2,-19 -12,-10 -46,-15 -44,-33 7,-5 14,5 22,9 8,5 19,9 25,12 -1,-7 5,-15 1,-21 -12,-12 -46,-14 -44,-31 14,-3 32,15 47,18 1,-17 -46,-23 -43,-42 13,-3 29,15 43,22 27,5 16,84 11,115 -3,19 -8,39 -11,58 -3,19 -3,38 -5,57 -3,39 -13,77 -16,115 -1,11 0,22 -1,34 -4,29 -4,52 -5,81 -2,45 -1,24 -21,17z"/>
   <g>
    <path class="fil0" d="M3050 1391c-24,16 -47,34 -70,55 7,-3 12,-9 17,-13 17,-14 35,-27 52,-40 1,-1 1,-1 1,-2z"/>
    <path class="fil0" d="M3105 1438c-1,0 -2,0 -2,-1 -32,28 -65,49 -97,75 34,-21 66,-45 98,-73 1,0 0,-1 1,-1z"/>
    <path class="fil0" d="M3017 1404c-1,-1 -1,0 -2,0 -20,14 -41,28 -62,45 22,-12 42,-30 64,-42 0,-1 0,-2 0,-3z"/>
    <path class="fil0" d="M3140 1490c-1,0 -1,0 -2,0 -26,28 -56,42 -83,66 7,-1 14,-8 21,-14 21,-15 45,-29 64,-50 0,-1 0,-1 0,-2z"/>
    <path class="fil0" d="M3067 1452c-1,-1 -1,0 -2,-1 -20,16 -42,28 -62,45 3,1 6,-2 8,-4 17,-13 38,-25 55,-39 1,0 1,-1 1,-1z"/>
    <path class="fil0" d="M2992 1416c-14,5 -26,15 -38,22 -13,8 -26,15 -38,24 7,-1 13,-5 19,-10 18,-11 39,-23 57,-36z"/>
    <path class="fil0" d="M3090 1478c-1,-1 -1,0 -2,0 -18,15 -37,26 -56,39 20,-10 39,-24 58,-39z"/>
    <path class="fil0" d="M3041 1454c0,0 -1,-1 -2,-1 -14,12 -30,21 -44,34 15,-10 33,-20 46,-33z"/>
    <path class="fil0" d="M3096 1485c-1,-1 -1,-1 -2,-1 -17,16 -36,28 -55,42 20,-10 41,-24 57,-41z"/>
    <path class="fil0" d="M2954 1408c-1,0 -1,-1 -1,-1 -10,5 -19,12 -28,18 -9,5 -19,10 -27,18 20,-8 38,-21 56,-35z"/>
    <path class="fil0" d="M3138 1511c-1,0 -1,1 -2,1 -20,19 -42,35 -64,51 24,-11 45,-29 66,-52z"/>
    <path class="fil0" d="M2939 1404c0,0 -1,-1 -1,-1 -16,12 -32,20 -48,31 17,-7 34,-17 49,-30z"/>
    <path class="fil0" d="M3032 1456c0,0 0,0 -1,-1 -20,11 -40,24 -61,36 6,0 10,-4 15,-6 15,-8 31,-18 46,-27 1,-1 1,-1 1,-2z"/>
    <path class="fil0" d="M3065 1480c-1,0 -1,0 -2,0 -13,10 -26,20 -40,30 4,1 7,-3 10,-6 10,-7 21,-15 31,-22 1,-1 1,-1 1,-2z"/>
    <path class="fil0" d="M2920 1405c-1,0 -1,0 -2,-1 -11,8 -24,13 -35,21 12,-5 25,-11 37,-20z"/>
    <path class="fil0" d="M3002 1457c-4,0 -11,6 -16,10 6,-2 11,-6 16,-10z"/>
    <path class="fil0" d="M2902 1403c-10,4 -20,10 -29,15 10,-1 19,-9 28,-13 1,-1 1,-1 1,-2z"/>
    <path class="fil0" d="M3141 1546c0,-1 -1,-1 -1,-1 -7,5 -13,10 -19,17 7,-5 15,-8 20,-16z"/>
    <path class="fil0" d="M3121 1547c-8,4 -16,10 -24,16 5,0 9,-4 13,-6 4,-3 8,-6 11,-10z"/>
    <path class="fil0" d="M3105 1490c-21,14 -41,32 -61,49 21,-15 42,-30 61,-49z"/>
   </g>
   <path class="fil1" d="M2354 2307l-1069 0 -1 -12 1071 0 -1 12zm7 -151l-1084 0 -1 -12 1085 0 0 12zm-1093 -188l1100 15 0 12 -1100 -15 0 -12zm1107 -134l-1114 0 -1 -12 1116 0 -1 12zm-1123 -180l1131 0 0 11 -1131 0 0 -11zm1137 -127l-1145 -27 -1 -12 1146 27 0 12zm-1153 -181l1158 57 0 11 -1157 -56 -1 -12zm1162 -38l-1168 -78 0 -12 1169 79 -1 11z"/>
   <polygon class="fil5 str0" points="1867,849 986,808 1010,1052 814,1052 754,191 1829,272 "/>
   <polygon class="fil2" points="1742,725 907,659 924,1042 999,1042 986,808 1857,839 1820,282 1649,268 "/>
   <g>
    <path class="fil0" d="M1266 261c-40,79 -77,161 -108,249 15,-17 20,-40 28,-61 25,-60 55,-121 80,-183 2,-2 0,-3 0,-5z"/>
    <path class="fil0" d="M1480 305c-1,1 -3,2 -5,2 -42,122 -103,225 -150,342 60,-105 112,-218 157,-338 1,-3 -2,-4 -2,-6z"/>
    <path class="fil0" d="M1197 344c-3,-1 -3,2 -5,2 -34,70 -71,137 -100,211 41,-63 69,-140 107,-206 1,-4 -1,-5 -2,-7z"/>
    <path class="fil0" d="M1652 394c-1,1 -3,2 -5,2 -29,112 -88,195 -126,299 19,-13 25,-43 37,-68 33,-71 76,-144 96,-228 1,-3 -1,-3 -2,-5z"/>
    <path class="fil0" d="M1401 398c-3,-1 -3,1 -6,1 -32,73 -73,136 -102,213 11,-2 14,-16 17,-24 28,-60 63,-122 91,-185 0,-2 0,-4 0,-5z"/>
    <path class="fil0" d="M1145 412c-27,36 -45,78 -68,117 -23,39 -45,77 -65,118 16,-11 26,-32 37,-53 31,-58 69,-119 96,-182z"/>
    <path class="fil0" d="M1501 434c-3,0 -3,2 -6,2 -26,68 -60,127 -92,187 40,-55 71,-120 98,-189z"/>
    <path class="fil0" d="M1334 442c-2,0 -3,0 -5,0 -23,54 -51,101 -71,157 27,-50 60,-103 76,-157z"/>
    <path class="fil0" d="M1527 444c-2,0 -4,0 -6,0 -24,69 -57,129 -85,194 38,-56 73,-124 91,-194z"/>
    <path class="fil0" d="M1033 447c-2,0 -3,0 -4,0 -19,28 -32,58 -48,87 -16,29 -36,57 -46,89 41,-49 71,-111 98,-176z"/>
    <path class="fil0" d="M1678 453c-2,0 -1,4 -3,4 -28,82 -62,157 -97,233 47,-65 78,-147 100,-237z"/>
    <path class="fil0" d="M988 459c-2,0 -3,0 -5,0 -24,53 -57,99 -82,151 36,-44 66,-93 87,-151z"/>
    <path class="fil0" d="M1314 460c-1,0 -3,0 -4,0 -40,59 -74,123 -111,185 14,-7 22,-25 32,-38 29,-43 55,-94 83,-139 0,-3 0,-5 0,-8z"/>
    <path class="fil0" d="M1436 477c-2,1 -3,2 -6,2 -18,48 -39,94 -61,139 12,-4 14,-19 19,-30 15,-33 34,-70 50,-104 1,-3 -1,-4 -2,-7z"/>
    <path class="fil0" d="M938 490c-2,0 -3,0 -5,0 -19,39 -47,69 -65,109 27,-33 52,-67 70,-109z"/>
    <path class="fil0" d="M1236 509c-13,6 -23,31 -29,49 12,-14 20,-32 29,-49z"/>
    <path class="fil0" d="M886 510c-20,26 -37,55 -55,84 27,-18 38,-51 57,-76 1,-4 -1,-5 -2,-8z"/>
    <path class="fil0" d="M1738 540c-2,0 -4,0 -6,0 -9,23 -18,46 -24,72 11,-22 26,-41 30,-72z"/>
    <path class="fil0" d="M1686 573c-16,24 -29,52 -41,80 13,-8 18,-24 24,-37 6,-13 14,-27 17,-43z"/>
    <path class="fil0" d="M1558 444c-35,69 -61,145 -91,220 35,-69 67,-140 91,-220z"/>
   </g>
  </g>
  <path class="fil9" d="M987 1486c119,289 -41,678 -477,707 -610,0 -672,-830 -191,-991 -173,77 -293,251 -293,453 0,273 221,495 495,495 273,0 495,-222 495,-495 0,-59 -10,-116 -29,-169z"/>
  <g style="clip-path:url(#id0)">
   <polygon class="fil10" style="mask:url(#id1)" points="26,1159 1016,1159 1016,2150 26,2150 "/>
  </g>
  <g style="clip-path:url(#id3)">
   <g id="_609208794448">
    <g>
     <polygon id="1" class="fil3" points="913,1267 845,1238 411,2182 454,2207 "/>
     <polygon class="fil3" points="142,2027 339,2141 765,1205 552,1115 "/>
    </g>
   </g>
  </g>
  <path class="fil11" d="M521 1159c273,0 495,222 495,496 0,273 -222,495 -495,495 -274,0 -495,-222 -495,-495 0,-274 221,-496 495,-496z"/>
  <path class="fil12" d="M498 1355l7 0c13,0 19,8 19,24l0 18c0,3 15,7 45,13 30,18 44,44 44,77l0 18c0,55 -6,82 -20,82 -11,0 -18,-5 -21,-16 3,-26 5,-48 5,-66l0 -16c0,-33 -18,-50 -53,-50 0,59 2,136 6,232l7 0c53,0 79,28 79,85 2,33 3,56 3,68 0,89 -8,134 -23,134 0,10 -16,19 -48,27l0 42c-2,5 -8,9 -18,13 -13,0 -19,-9 -19,-26l0 -22c-51,0 -82,-17 -95,-52 -7,-26 -10,-53 -10,-82l0 -3c0,-52 5,-79 16,-79l7 0c4,0 9,5 16,13 -1,9 -2,16 -2,23 0,7 0,12 0,17l0 39c0,59 17,88 49,88l19 0 0 -9c0,-8 -1,-32 -4,-72 -3,-40 -7,-96 -12,-170 -45,0 -71,-14 -79,-44 -7,-29 -10,-59 -10,-90l0 -40c3,-78 14,-118 32,-118 1,-5 18,-10 50,-13l0 -26c0,-10 3,-16 10,-19zm-58 195c0,78 10,116 29,116 3,1 7,1 10,2 4,0 8,0 11,0l5 0c-3,-44 -5,-85 -6,-123 -1,-38 -1,-74 -1,-108l-11 0c-23,0 -34,23 -34,68 0,7 -1,22 -3,45zm92 155c0,6 2,29 4,69 3,41 7,98 12,173 21,-5 32,-22 32,-52 1,-8 1,-16 1,-26 1,-9 1,-20 1,-32l0 -16c0,-73 -8,-110 -23,-110l-27 -6z"/>
 </g>
</svg>
