<?xml version="1.0" encoding="UTF-8"?>
<!DOCTYPE svg PUBLIC "-//W3C//DTD SVG 1.1//EN" "http://www.w3.org/Graphics/SVG/1.1/DTD/svg11.dtd">
<!-- Creator: CorelDRAW X8 -->
<svg xmlns="http://www.w3.org/2000/svg" xml:space="preserve" width="100%" height="100%" version="1.1" style="shape-rendering:geometricPrecision; text-rendering:geometricPrecision; image-rendering:optimizeQuality; fill-rule:evenodd; clip-rule:evenodd"
viewBox="0 0 8175 3954"
 xmlns:xlink="http://www.w3.org/1999/xlink">
 <defs>
  <style type="text/css">
   <![CDATA[
    .fil0 {fill:#181819}
    .fil3 {fill:#3B342E}
    .fil1 {fill:#EB833B}
    .fil2 {fill:white}
   ]]>
  </style>
 </defs>
 <g id="Capa_x0020_1">
  <metadata id="CorelCorpID_0Corel-Layer"/>
  <rect class="fil0" transform="matrix(3.78807E-14 2.32453 -1.41167 6.07626E-14 8174.62 6.01338E-06)" width="1701" height="5791"/>
  <path class="fil1" d="M8175 1165l0 -1165 -779 0c-38,95 -58,198 -58,306 0,566 385,851 837,859z"/>
  <path class="fil2" d="M7761 710c41,-65 158,-188 158,-284 0,-81 -73,-147 -155,-147 -81,0 -154,66 -154,147 0,94 112,219 151,284zm53 -291c0,27 -22,49 -48,49 -27,0 -49,-22 -49,-49 0,-27 22,-48 49,-48 26,0 48,21 48,48zm41 0c0,50 -40,90 -89,90 -50,0 -90,-40 -90,-90 0,-49 40,-89 90,-89 49,0 89,40 89,89z"/>
  <path class="fil3" d="M7659 703c-152,4 -112,32 -108,-169 5,-237 -29,-163 209,-344 32,-25 287,216 288,238 13,327 68,290 -244,281 -24,-1 -8,-118 -6,-156l-95 -4 -3 90c0,-8 -7,-95 0,-96 155,-14 111,-2 113,146l215 -6 -7 -243c-168,-135 -91,-92 -251,-231l-199 156 -9 335 97 3z"/>
 </g>
</svg>
