<?xml version="1.0" encoding="UTF-8" standalone="no"?>
<!-- Creator: CorelDRAW X8 -->

<svg
   xmlns:dc="http://purl.org/dc/elements/1.1/"
   xmlns:cc="http://creativecommons.org/ns#"
   xmlns:rdf="http://www.w3.org/1999/02/22-rdf-syntax-ns#"
   xmlns:svg="http://www.w3.org/2000/svg"
   xmlns="http://www.w3.org/2000/svg"
   xmlns:sodipodi="http://sodipodi.sourceforge.net/DTD/sodipodi-0.dtd"
   xmlns:inkscape="http://www.inkscape.org/namespaces/inkscape"
   xml:space="preserve"
   width="80.000008"
   height="22.008944"
   version="1.1"
   style="clip-rule:evenodd;fill-rule:evenodd;image-rendering:optimizeQuality;shape-rendering:geometricPrecision;text-rendering:geometricPrecision"
   viewBox="0 0 80.000008 22.008944"
   id="svg55"
   sodipodi:docname="LoginBackground.svg"
   inkscape:version="0.92.5 (2060ec1f9f, 2020-04-08)"><metadata
   id="metadata59"><rdf:RDF><cc:Work
       rdf:about=""><dc:format>image/svg+xml</dc:format><dc:type
         rdf:resource="http://purl.org/dc/dcmitype/StillImage" /><dc:title /></cc:Work></rdf:RDF></metadata><sodipodi:namedview
   pagecolor="#ffffff"
   bordercolor="#666666"
   borderopacity="1"
   objecttolerance="10"
   gridtolerance="10"
   guidetolerance="10"
   inkscape:pageopacity="0"
   inkscape:pageshadow="2"
   inkscape:window-width="1366"
   inkscape:window-height="748"
   id="namedview57"
   showgrid="false"
   fit-margin-top="0"
   fit-margin-left="0"
   fit-margin-right="0"
   fit-margin-bottom="0"
   inkscape:zoom="5.7866836"
   inkscape:cx="9.4645803"
   inkscape:cy="29.795664"
   inkscape:window-x="1920"
   inkscape:window-y="1"
   inkscape:window-maximized="1"
   inkscape:current-layer="svg55" />
 <defs
   id="defs4">
  <style
   type="text/css"
   id="style2">
   <![CDATA[
    .fil1 {fill:#858384}
    .fil0 {fill:#A19F9E;fill-rule:nonzero}
    .fil2 {fill:#A39EA0;fill-rule:nonzero}
   ]]>
  </style>
 
  
  
 
   
   
   
   
  </defs>
 <path
   class="fil1"
   d="m 20.172878,1.0491804 -0.09538,10.7779446 0.09538,9.132639 c 0.524591,0.07154 0.977646,0.119225 1.311476,0.119225 1.00149,0 2.002981,-0.19076 3.052161,-0.548435 1.049181,-0.333831 1.955291,-0.834576 2.766021,-1.430701 0.524591,-0.405365 1.049181,-0.929955 1.597616,-1.573771 0.548435,-0.66766 1.144561,-1.38301 1.478391,-2.00298 0.23845,-0.429211 0.23845,-0.405366 0.85842,-0.405366 h 48.50075 v 0.810731 h -48.50075 c -0.119225,0.28614 -0.33383,0.643815 -0.643815,1.073025 -0.500745,0.739195 -1.049181,1.383011 -1.645306,1.955291 -1.28763,1.263785 -2.813711,2.122206 -4.578242,2.622951 -1.04918,0.28614 -2.050671,0.42921 -3.028316,0.42921 -1.430701,0 -2.837556,-0.309985 -4.268257,-0.90611 -2.289121,-0.977646 -4.029807,-2.503726 -5.245902,-4.578242 -0.977645,-1.740686 -1.478391,-3.576752 -1.478391,-5.532042 0,-1.9791362 0.524591,-3.862892 1.549926,-5.6274228 C 12.99553,3.4813715 14.569301,2.0506709 16.572282,1.0730254 18.050673,0.35767515 19.624443,0 21.341284,0 c 2.909091,0 5.436662,1.0014904 7.558868,2.9567812 1.025336,0.9538004 1.526081,1.6453057 1.526081,2.0506709 0,0.119225 -0.04769,0.2146051 -0.14307,0.3099851 -0.119225,0.09538 -0.214605,0.1192251 -0.357675,0.1192251 -0.190761,0 -0.429211,-0.1907601 -0.715351,-0.5722803 C 28.327872,3.6482865 27.183311,2.6944861 25.752611,2.0029808 24.345755,1.2876305 22.84352,0.92995539 21.245904,0.92995539 c -0.38152,0 -0.739195,0.04769 -1.073026,0.11922501 z"
   id="path47"
   inkscape:connector-curvature="0"
   style="fill:#858384;stroke-width:0.02384501" /><path
   class="fil0"
   d="m 11.016395,0 c 1.597615,0 3.147541,0.33383014 4.625932,1.0253354 2.19374,1.0014904 3.862891,2.5514161 5.007452,4.625932 0.929955,1.6691507 1.38301,3.5052164 1.38301,5.4605076 0,1.597615 -0.33383,3.123696 -1.04918,4.602087 -1.025336,2.217586 -2.670641,3.886736 -4.864382,5.031297 -1.621461,0.834575 -3.314457,1.263785 -5.102832,1.263785 -1.8837562,0 -3.6721319,-0.4769 -5.3412826,-1.4307 C 3.4336814,19.314458 1.8360658,17.549927 0.88226537,15.284651 0.28614012,13.901641 0,12.47094 0,10.99255 0,9.1326388 0.45305519,7.3681081 1.3830106,5.6751124 2.5275711,3.6005965 4.1728768,2.0506709 6.3427727,1.0253354 7.7973183,0.35767515 9.3472439,0 11.016395,0 Z m -1.1684059,1.0253354 -0.09538,9.8956796 0.071535,8.250373 0.023845,1.836066 c 0.3338299,0.07154 0.6676599,0.09538 0.9776459,0.09538 2.217585,0 4.220566,-0.61997 5.985097,-1.859911 1.597616,-1.120715 2.766021,-2.599106 3.481372,-4.363637 0.500745,-1.263785 0.76304,-2.551416 0.76304,-3.886736 0,-1.7645311 -0.42921,-3.4098368 -1.287631,-4.9359175 C 18.718333,4.1967218 17.263787,2.8137112 15.380031,1.9314458 13.973176,1.2637855 12.47094,0.92995539 10.921015,0.92995539 c -0.381521,0 -0.739196,0.04769 -1.0730259,0.09538 z"
   id="path49"
   inkscape:connector-curvature="0"
   style="fill:#a19f9e;fill-rule:nonzero;stroke-width:0.02384501" />
</svg>