<?xml version="1.0" encoding="UTF-8" standalone="no"?>
<!-- Creator: CorelDRAW X8 -->

<svg
   xmlns:dc="http://purl.org/dc/elements/1.1/"
   xmlns:cc="http://creativecommons.org/ns#"
   xmlns:rdf="http://www.w3.org/1999/02/22-rdf-syntax-ns#"
   xmlns:svg="http://www.w3.org/2000/svg"
   xmlns="http://www.w3.org/2000/svg"
   xmlns:sodipodi="http://sodipodi.sourceforge.net/DTD/sodipodi-0.dtd"
   xmlns:inkscape="http://www.inkscape.org/namespaces/inkscape"
   xml:space="preserve"
   width="80.000008"
   height="22.008944"
   version="1.1"
   style="clip-rule:evenodd;fill-rule:evenodd;image-rendering:optimizeQuality;shape-rendering:geometricPrecision;text-rendering:geometricPrecision"
   viewBox="0 0 80.000008 22.008944"
   id="svg55"
   sodipodi:docname="LogoCostoya.svg"
   inkscape:version="0.92.3 (2405546, 2018-03-11)"><metadata
   id="metadata59"><rdf:RDF><cc:Work
       rdf:about=""><dc:format>image/svg+xml</dc:format><dc:type
         rdf:resource="http://purl.org/dc/dcmitype/StillImage" /><dc:title></dc:title></cc:Work></rdf:RDF></metadata><sodipodi:namedview
   pagecolor="#ffffff"
   bordercolor="#666666"
   borderopacity="1"
   objecttolerance="10"
   gridtolerance="10"
   guidetolerance="10"
   inkscape:pageopacity="0"
   inkscape:pageshadow="2"
   inkscape:window-width="1361"
   inkscape:window-height="745"
   id="namedview57"
   showgrid="false"
   fit-margin-top="0"
   fit-margin-left="0"
   fit-margin-right="0"
   fit-margin-bottom="0"
   inkscape:zoom="0.12786885"
   inkscape:cx="-1118.3334"
   inkscape:cy="461.5"
   inkscape:window-x="5"
   inkscape:window-y="1"
   inkscape:window-maximized="1"
   inkscape:current-layer="svg55" />
 <defs
   id="defs4">
  <style
   type="text/css"
   id="style2">
   <![CDATA[
    .fil1 {fill:#858384}
    .fil0 {fill:#A19F9E;fill-rule:nonzero}
    .fil2 {fill:#A39EA0;fill-rule:nonzero}
   ]]>
  </style>
 </defs>
 <g
   id="Capa_x0020_1"
   transform="scale(0.02384501)">
  <metadata
   id="CorelCorpID_0Corel-Layer" />
  <g
   id="_708360229616">
   <g
   id="g45">
    <polygon
   class="fil0"
   points="1461,787 1461,814 1330,814 1330,700 1461,700 1461,727 1366,727 1366,743 1456,743 1456,768 1366,768 1366,787 "
   id="polygon7"
   style="fill:#a19f9e;fill-rule:nonzero" />
    <path
   class="fil0"
   d="m 1469,788 h 31 c 1,4 3,6 6,7 4,2 11,2 20,2 11,0 17,0 21,-1 4,-1 5,-3 5,-6 0,-3 -1,-5 -5,-6 -1,0 -10,-1 -26,-1 -15,0 -25,0 -28,-1 -10,-1 -17,-4 -20,-9 -3,-3 -4,-8 -4,-15 0,-12 5,-19 14,-23 7,-3 21,-4 44,-4 14,0 24,1 31,2 6,1 11,3 15,5 2,2 3,4 4,7 1,2 2,6 2,11 h -31 c -1,-2 -2,-3 -3,-4 -2,-1 -9,-2 -19,-2 -10,0 -17,0 -20,1 -4,1 -6,3 -6,5 0,4 3,5 8,6 4,0 18,0 42,0 12,0 21,2 26,6 5,4 8,10 8,20 0,6 -1,11 -3,14 -2,4 -6,7 -10,9 -8,3 -23,5 -47,5 -15,0 -26,-1 -33,-2 -6,-1 -11,-3 -15,-6 -5,-5 -7,-11 -7,-20 z"
   id="path9"
   inkscape:connector-curvature="0"
   style="fill:#a19f9e;fill-rule:nonzero" />
    <path
   class="fil0"
   d="m 1605,715 h 31 v 18 h 49 v 22 h -49 v 23 c 0,7 0,11 1,12 2,3 6,4 11,4 6,0 10,-1 12,-4 0,-1 0,-2 1,-3 0,-1 0,-4 0,-8 h 28 c 0,8 0,14 -1,17 -1,3 -3,7 -5,10 -3,3 -7,6 -13,8 -5,1 -14,2 -24,2 -10,0 -18,-1 -23,-2 -4,-1 -8,-3 -11,-6 -3,-2 -4,-4 -5,-6 -1,-3 -2,-6 -2,-11 0,-1 0,-6 0,-13 v -23 h -17 v -22 h 17 z"
   id="path11"
   inkscape:connector-curvature="0"
   style="fill:#a19f9e;fill-rule:nonzero" />
    <path
   class="fil0"
   d="m 1810,814 h -29 v -12 h -2 c -2,5 -6,9 -12,11 -5,2 -13,3 -24,3 -9,0 -17,-1 -23,-2 -5,-2 -10,-5 -14,-8 -4,-4 -6,-8 -7,-13 -2,-4 -2,-12 -2,-23 v -37 h 31 v 37 c 0,6 0,10 1,13 0,2 2,4 3,6 2,1 4,3 7,3 3,1 8,1 14,1 10,0 17,-1 20,-4 2,-2 4,-5 5,-8 0,-3 1,-8 1,-15 v -33 h 31 z"
   id="path13"
   inkscape:connector-curvature="0"
   style="fill:#a19f9e;fill-rule:nonzero" />
    <path
   class="fil0"
   d="m 1939,700 v 114 h -29 v -11 h -2 c -2,4 -4,7 -7,8 -6,3 -16,5 -30,5 -11,0 -20,-1 -26,-2 -6,-1 -11,-3 -14,-7 -4,-3 -6,-7 -7,-12 -2,-5 -2,-12 -2,-22 0,-7 0,-13 1,-17 1,-4 2,-8 3,-11 4,-6 9,-10 18,-12 6,-1 15,-2 28,-2 11,0 18,1 23,3 5,1 9,5 12,10 h 1 v -44 z m -57,54 c -13,0 -20,1 -24,3 -3,2 -5,8 -5,16 0,6 0,10 1,13 1,2 3,4 6,5 4,1 10,2 20,2 11,0 19,-1 23,-3 2,-1 3,-3 4,-6 1,-2 1,-6 1,-10 0,-6 0,-10 -1,-13 -1,-2 -3,-4 -6,-5 -4,-1 -10,-2 -19,-2 z"
   id="path15"
   inkscape:connector-curvature="0"
   style="fill:#a19f9e;fill-rule:nonzero" />
    <path
   class="fil0"
   d="m 1953,733 h 32 v 81 h -32 z m 0,-33 h 32 v 23 h -32 z"
   id="path17"
   inkscape:connector-curvature="0"
   style="fill:#a19f9e;fill-rule:nonzero" />
    <path
   class="fil0"
   d="m 2055,731 c 15,0 25,1 32,2 7,1 13,3 17,5 4,3 7,7 8,12 2,4 2,12 2,22 0,7 0,13 0,17 -1,4 -1,7 -3,10 -3,8 -9,12 -18,14 -7,2 -20,3 -37,3 -16,0 -27,-1 -34,-2 -7,-1 -12,-3 -16,-6 -4,-3 -6,-7 -8,-12 -1,-5 -2,-13 -2,-25 0,-7 1,-12 1,-15 1,-4 2,-7 3,-10 3,-6 9,-10 16,-12 8,-2 21,-3 39,-3 z m 1,23 c -11,0 -18,1 -21,2 -3,1 -5,3 -6,6 -1,3 -2,7 -2,12 0,5 1,9 2,11 1,3 3,4 5,6 4,1 11,2 22,2 11,0 19,-1 22,-3 4,-3 5,-8 5,-17 0,-5 0,-9 -1,-11 -1,-3 -3,-5 -6,-6 -4,-1 -11,-2 -20,-2 z"
   id="path19"
   inkscape:connector-curvature="0"
   style="fill:#a19f9e;fill-rule:nonzero" />
    <polygon
   class="fil0"
   points="2222,700 2222,814 2185,814 2185,700 "
   id="polygon21"
   style="fill:#a19f9e;fill-rule:nonzero" />
    <path
   class="fil0"
   d="m 2238,733 h 29 v 12 h 2 c 2,-5 7,-9 12,-11 5,-2 13,-3 23,-3 10,0 18,1 24,2 5,2 10,4 14,8 3,4 6,8 7,13 1,4 2,12 2,23 v 37 h -31 v -37 c 0,-6 -1,-11 -1,-13 -1,-2 -2,-4 -3,-6 -3,-3 -10,-4 -21,-4 -11,0 -18,2 -22,5 -2,2 -3,4 -3,7 -1,3 -1,8 -1,16 v 32 h -31 z"
   id="path23"
   inkscape:connector-curvature="0"
   style="fill:#a19f9e;fill-rule:nonzero" />
    <path
   class="fil0"
   d="m 2364,733 h 30 v 12 h 1 c 5,-9 16,-14 34,-14 10,0 18,1 24,4 6,3 11,7 14,13 3,-6 7,-10 12,-13 6,-3 14,-4 24,-4 9,0 16,1 21,2 6,2 10,5 14,8 3,4 6,8 7,13 1,4 2,12 2,22 v 38 h -32 v -38 c 0,-6 0,-10 0,-12 -1,-3 -2,-4 -3,-6 -3,-3 -9,-4 -18,-4 -9,0 -15,1 -18,5 -2,2 -3,4 -4,7 -1,3 -1,8 -1,15 v 33 h -31 v -38 c 0,-6 0,-10 -1,-12 0,-3 -1,-4 -2,-6 -3,-3 -9,-4 -18,-4 -9,0 -15,1 -19,5 -2,1 -3,4 -3,7 -1,3 -1,8 -1,15 v 33 h -32 z"
   id="path25"
   inkscape:connector-curvature="0"
   style="fill:#a19f9e;fill-rule:nonzero" />
    <path
   class="fil0"
   d="m 2617,731 c 14,0 25,1 32,2 7,1 12,3 16,5 4,3 7,7 9,12 1,4 2,12 2,22 0,7 0,13 -1,17 0,4 -1,7 -2,10 -3,8 -9,12 -18,14 -8,2 -20,3 -38,3 -16,0 -27,-1 -33,-2 -7,-1 -13,-3 -17,-6 -3,-3 -6,-7 -7,-12 -2,-5 -2,-13 -2,-25 0,-7 0,-12 1,-15 0,-4 1,-7 3,-10 3,-6 8,-10 16,-12 7,-2 20,-3 39,-3 z m 0,23 c -10,0 -17,1 -21,2 -2,1 -4,3 -5,6 -1,3 -2,7 -2,12 0,5 0,9 1,11 1,3 3,4 6,6 4,1 11,2 21,2 12,0 19,-1 23,-3 3,-3 5,-8 5,-17 0,-5 -1,-9 -2,-11 -1,-3 -3,-5 -5,-6 -4,-1 -11,-2 -21,-2 z"
   id="path27"
   inkscape:connector-curvature="0"
   style="fill:#a19f9e;fill-rule:nonzero" />
    <path
   class="fil0"
   d="m 2688,700 h 31 v 44 h 1 c 3,-5 7,-8 12,-10 5,-2 13,-3 23,-3 11,0 19,1 25,2 6,1 11,3 15,6 4,2 7,6 8,11 2,5 2,13 2,23 0,7 0,12 0,16 -1,3 -2,7 -3,10 -2,6 -7,11 -14,13 -7,3 -17,4 -32,4 -14,0 -25,-2 -30,-5 -2,-1 -5,-4 -7,-8 h -2 v 11 h -29 z m 59,54 c -11,0 -18,1 -22,3 -2,1 -4,3 -5,5 -1,3 -1,7 -1,12 0,5 0,10 2,12 1,2 3,4 6,5 4,1 11,2 20,2 11,0 19,-1 22,-3 2,-1 3,-3 4,-6 1,-2 1,-6 1,-11 0,-6 0,-9 -1,-12 -1,-2 -3,-4 -6,-5 -4,-1 -11,-2 -20,-2 z"
   id="path29"
   inkscape:connector-curvature="0"
   style="fill:#a19f9e;fill-rule:nonzero" />
    <path
   class="fil0"
   d="m 2817,733 h 31 v 81 h -31 z m 0,-33 h 31 v 23 h -31 z"
   id="path31"
   inkscape:connector-curvature="0"
   style="fill:#a19f9e;fill-rule:nonzero" />
    <polygon
   class="fil0"
   points="2894,700 2894,814 2862,814 2862,700 "
   id="polygon33"
   style="fill:#a19f9e;fill-rule:nonzero" />
    <path
   class="fil0"
   d="m 2908,733 h 31 v 81 h -31 z m 0,-33 h 31 v 23 h -31 z"
   id="path35"
   inkscape:connector-curvature="0"
   style="fill:#a19f9e;fill-rule:nonzero" />
    <path
   class="fil0"
   d="m 2985,758 h -31 c 0,-6 2,-11 4,-14 4,-5 9,-8 17,-10 8,-2 21,-3 40,-3 14,0 23,0 28,1 5,1 9,4 13,7 3,3 4,6 5,10 1,3 2,9 2,16 v 49 h -30 v -11 h -2 c -2,5 -5,8 -10,10 -3,1 -7,2 -12,2 -4,1 -12,1 -22,1 -9,0 -15,-1 -20,-2 -4,-1 -8,-2 -11,-5 -4,-4 -6,-10 -6,-18 0,-10 3,-16 8,-21 3,-3 8,-5 15,-6 6,-1 17,-1 34,-1 7,0 12,0 15,1 3,1 6,2 8,5 h 2 v -4 c 0,-7 -1,-11 -4,-12 -2,-2 -8,-3 -18,-3 -11,0 -18,1 -20,2 -3,0 -5,3 -5,6 z m 21,22 c -11,0 -17,0 -20,2 -3,1 -4,3 -4,6 0,3 1,6 4,7 3,1 9,2 17,2 11,0 18,-1 22,-2 4,-2 6,-4 6,-8 0,-3 -2,-5 -5,-6 -1,-1 -8,-1 -20,-1 z"
   id="path37"
   inkscape:connector-curvature="0"
   style="fill:#a19f9e;fill-rule:nonzero" />
    <path
   class="fil0"
   d="m 3076,733 h 30 v 12 h 1 c 3,-5 7,-9 12,-11 5,-2 12,-3 21,-3 12,0 21,2 26,7 5,5 7,13 7,26 0,0 0,2 0,5 h -29 c 0,-5 -1,-8 -2,-10 -2,-3 -7,-5 -15,-5 -7,0 -12,2 -15,6 -2,2 -3,4 -3,7 -1,3 -1,7 -1,13 v 34 h -32 z"
   id="path39"
   inkscape:connector-curvature="0"
   style="fill:#a19f9e;fill-rule:nonzero" />
    <path
   class="fil0"
   d="m 3182,733 h 31 v 81 h -31 z m 0,-33 h 31 v 23 h -31 z"
   id="path41"
   inkscape:connector-curvature="0"
   style="fill:#a19f9e;fill-rule:nonzero" />
    <path
   class="fil0"
   d="m 3284,731 c 14,0 25,1 32,2 7,1 12,3 16,5 5,3 7,7 9,12 1,4 2,12 2,22 0,7 0,13 -1,17 0,4 -1,7 -2,10 -3,8 -9,12 -18,14 -8,2 -20,3 -38,3 -15,0 -27,-1 -33,-2 -7,-1 -12,-3 -16,-6 -4,-3 -7,-7 -8,-12 -1,-5 -2,-13 -2,-25 0,-7 0,-12 1,-15 0,-4 1,-7 3,-10 3,-6 8,-10 16,-12 7,-2 20,-3 39,-3 z m 0,23 c -10,0 -17,1 -21,2 -2,1 -4,3 -5,6 -1,3 -2,7 -2,12 0,5 1,9 1,11 1,3 3,4 6,6 4,1 11,2 21,2 12,0 20,-1 23,-3 3,-3 5,-8 5,-17 0,-5 -1,-9 -2,-11 -1,-3 -3,-5 -5,-6 -4,-1 -11,-2 -21,-2 z"
   id="path43"
   inkscape:connector-curvature="0"
   style="fill:#a19f9e;fill-rule:nonzero" />
   </g>
   <path
   class="fil1"
   d="m 846,44 -4,452 4,383 c 22,3 41,5 55,5 42,0 84,-8 128,-23 44,-14 82,-35 116,-60 22,-17 44,-39 67,-66 23,-28 48,-58 62,-84 10,-18 10,-17 36,-17 h 2034 v 34 H 1310 c -5,12 -14,27 -27,45 -21,31 -44,58 -69,82 -54,53 -118,89 -192,110 -44,12 -86,18 -127,18 C 835,923 776,910 716,885 620,844 547,780 496,693 455,620 434,543 434,461 434,378 456,299 499,225 545,146 611,86 695,45 757,15 823,0 895,0 c 122,0 228,42 317,124 43,40 64,69 64,86 0,5 -2,9 -6,13 -5,4 -9,5 -15,5 -8,0 -18,-8 -30,-24 -37,-51 -85,-91 -145,-120 -59,-30 -122,-45 -189,-45 -16,0 -31,2 -45,5 z"
   id="path47"
   inkscape:connector-curvature="0"
   style="fill:#858384" />
   <path
   class="fil0"
   d="m 462,0 c 67,0 132,14 194,43 92,42 162,107 210,194 39,70 58,147 58,229 0,67 -14,131 -44,193 C 837,752 768,822 676,870 608,905 537,923 462,923 383,923 308,903 238,863 144,810 77,736 37,641 12,583 0,523 0,461 0,383 19,309 58,238 106,151 175,86 266,43 327,15 392,0 462,0 Z m -49,43 -4,415 3,346 1,77 c 14,3 28,4 41,4 93,0 177,-26 251,-78 C 772,760 821,698 851,624 872,571 883,517 883,461 883,387 865,318 829,254 785,176 724,118 645,81 586,53 523,39 458,39 c -16,0 -31,2 -45,4 z"
   id="path49"
   inkscape:connector-curvature="0"
   style="fill:#a19f9e;fill-rule:nonzero" />
   <path
   class="fil2"
   d="m 1163,259 -2,200 2,170 c 10,2 18,2 24,2 18,0 37,-3 56,-10 20,-6 37,-15 52,-26 9,-8 19,-18 29,-30 10,-12 19,-24 25,-36 3,-7 7,-10 11,-10 7,0 10,3 10,8 0,6 -5,15 -14,29 -10,13 -20,25 -31,36 -24,23 -52,39 -85,48 -19,6 -38,9 -56,9 -26,0 -52,-6 -79,-17 -42,-18 -74,-47 -97,-85 -18,-33 -27,-67 -27,-103 0,-37 9,-72 29,-105 20,-34 49,-61 86,-80 27,-13 57,-19 88,-19 54,0 101,18 140,55 19,17 28,30 28,38 0,2 -1,4 -2,5 -2,2 -4,3 -7,3 -3,0 -8,-4 -13,-11 -16,-23 -37,-40 -64,-53 -26,-13 -54,-20 -83,-20 -7,0 -14,1 -20,2 z m 394,39 c 30,0 58,8 85,25 25,16 44,37 57,63 12,24 18,49 18,75 0,18 -4,37 -10,55 -7,18 -17,34 -28,48 -17,20 -37,34 -61,44 -19,8 -40,12 -61,12 -35,0 -67,-10 -96,-31 -22,-17 -39,-37 -50,-63 -10,-21 -14,-44 -14,-68 0,-47 17,-85 50,-116 32,-29 68,-43 110,-44 z m -9,18 v 285 c 5,1 9,1 12,1 26,0 51,-8 75,-22 22,-15 40,-34 51,-58 9,-18 14,-39 14,-62 0,-45 -17,-82 -51,-110 -27,-23 -56,-35 -88,-35 -2,0 -7,1 -13,1 z m 219,246 c 4,0 9,3 15,8 9,9 22,17 40,23 17,7 33,10 49,10 7,0 12,-1 15,-4 4,-2 6,-6 6,-10 0,-5 -3,-10 -8,-17 -4,-6 -15,-18 -32,-36 -40,-43 -67,-74 -79,-91 -11,-18 -17,-35 -17,-51 0,-14 4,-27 12,-40 8,-13 19,-24 34,-33 24,-15 52,-23 83,-23 24,0 48,5 74,15 20,8 30,16 30,25 0,3 -1,5 -4,8 -2,2 -5,3 -8,3 -3,0 -10,-4 -20,-10 -20,-15 -42,-22 -65,-22 -8,0 -15,1 -19,4 -4,3 -6,7 -6,12 0,7 4,15 11,24 8,10 24,27 48,50 24,23 38,38 45,45 6,7 12,15 18,24 10,16 15,33 15,52 0,29 -14,52 -42,70 -23,15 -51,22 -85,22 -37,0 -70,-8 -99,-25 -8,-5 -14,-9 -17,-12 -3,-3 -5,-7 -5,-10 0,-7 4,-11 11,-11 z m 442,-356 -3,91 v 9 c 16,0 31,-1 44,-2 3,-1 5,-1 6,-1 9,0 13,4 13,12 0,7 -5,10 -13,10 -3,0 -6,0 -10,0 -15,-1 -25,-2 -32,-2 h -8 v 55 l 1,110 1,59 c 0,14 1,23 3,29 2,5 5,8 11,8 6,0 14,-4 21,-12 8,-8 14,-18 18,-29 4,-11 9,-16 14,-16 7,0 10,3 10,10 0,7 -3,16 -10,27 -6,11 -14,20 -23,28 -22,19 -51,29 -86,29 -33,0 -59,-10 -77,-30 -10,-11 -16,-22 -20,-34 -3,-13 -5,-30 -5,-53 V 483 424 323 c -2,-1 -4,-1 -5,-1 -2,0 -6,1 -12,1 -4,0 -8,1 -12,1 -9,0 -13,-4 -13,-11 0,-7 4,-11 13,-11 4,0 7,0 9,0 l 20,2 v -32 c 56,-20 104,-42 145,-66 z m 256,92 c 31,0 59,8 86,25 25,16 44,37 57,63 12,24 18,49 18,75 0,18 -4,37 -10,55 -7,18 -17,34 -29,48 -16,20 -36,34 -60,44 -19,8 -40,12 -61,12 -35,0 -67,-10 -96,-31 -22,-17 -39,-37 -50,-63 -10,-21 -14,-44 -14,-68 0,-47 16,-85 50,-116 32,-29 68,-43 109,-44 z m -8,18 -1,285 c 6,1 10,1 13,1 26,0 51,-8 74,-22 23,-15 41,-34 52,-58 9,-18 14,-39 14,-62 0,-45 -17,-82 -51,-110 -27,-23 -56,-35 -88,-35 -3,0 -7,1 -13,1 z m 416,130 c 37,-56 64,-99 81,-128 6,-10 10,-16 11,-17 2,-2 4,-3 7,-3 4,0 7,2 10,4 3,3 4,6 4,10 0,3 -1,6 -4,10 -27,37 -62,87 -103,150 l -49,76 c -17,26 -32,45 -43,57 -8,8 -18,14 -29,19 -12,5 -23,8 -33,8 -11,0 -19,-2 -26,-6 -6,-4 -10,-9 -10,-16 0,-4 2,-7 5,-10 3,-3 6,-4 11,-4 3,0 9,2 18,7 6,3 11,4 16,4 8,0 16,-3 24,-8 7,-5 16,-14 25,-25 l -34,-53 C 2683,410 2635,338 2611,306 h 179 c 11,24 24,49 39,74 15,24 29,46 44,66 z m 325,-20 v -34 c 0,-24 0,-39 -1,-44 -1,-6 -2,-11 -5,-15 -7,-11 -22,-16 -47,-16 -39,0 -68,12 -89,36 -9,10 -16,14 -21,14 -5,0 -9,-1 -12,-4 -3,-3 -4,-7 -4,-10 0,-12 14,-24 41,-37 27,-12 62,-18 104,-18 69,0 118,11 147,32 12,9 20,19 24,31 4,11 5,31 5,60 v 112 c 0,21 0,37 2,47 2,11 7,22 13,34 h -157 v -30 c -18,12 -35,21 -52,27 -17,6 -33,9 -50,9 -28,0 -53,-8 -74,-24 -29,-22 -43,-50 -43,-84 0,-30 12,-55 35,-73 26,-22 59,-33 99,-33 16,0 30,1 43,4 12,3 26,9 42,16 z m 0,21 c -23,-12 -42,-18 -55,-18 -10,0 -18,4 -21,13 -2,4 -3,18 -3,41 v 67 c 0,15 1,24 2,27 2,9 8,13 19,13 8,0 18,-2 28,-8 11,-5 20,-12 29,-20 z"
   id="path51"
   inkscape:connector-curvature="0"
   style="fill:#a39ea0;fill-rule:nonzero" />
  </g>
 </g>
</svg>