<?xml version="1.0" encoding="UTF-8" standalone="no"?>
<!-- Generator: Adobe Illustrator 16.0.0, SVG Export Plug-In . SVG Version: 6.00 Build 0)  -->

<svg
   xmlns:dc="http://purl.org/dc/elements/1.1/"
   xmlns:cc="http://creativecommons.org/ns#"
   xmlns:rdf="http://www.w3.org/1999/02/22-rdf-syntax-ns#"
   xmlns:svg="http://www.w3.org/2000/svg"
   xmlns="http://www.w3.org/2000/svg"
   xmlns:sodipodi="http://sodipodi.sourceforge.net/DTD/sodipodi-0.dtd"
   xmlns:inkscape="http://www.inkscape.org/namespaces/inkscape"
   version="1.1"
   id="Capa_1"
   x="0px"
   y="0px"
   width="100"
   height="75.588074"
   viewBox="0 0 99.999996 75.588076"
   xml:space="preserve"
   sodipodi:docname="logo.svg"
   inkscape:version="0.92.3 (2405546, 2018-03-11)"><metadata
   id="metadata45"><rdf:RDF><cc:Work
       rdf:about=""><dc:format>image/svg+xml</dc:format><dc:type
         rdf:resource="http://purl.org/dc/dcmitype/StillImage" /><dc:title></dc:title></cc:Work></rdf:RDF></metadata><defs
   id="defs43" /><sodipodi:namedview
   pagecolor="#ffffff"
   bordercolor="#666666"
   borderopacity="1"
   objecttolerance="10"
   gridtolerance="10"
   guidetolerance="10"
   inkscape:pageopacity="0"
   inkscape:pageshadow="2"
   inkscape:window-width="1364"
   inkscape:window-height="724"
   id="namedview41"
   showgrid="false"
   showguides="true"
   inkscape:guide-bbox="true"
   inkscape:zoom="0.57059839"
   inkscape:cx="132.9208"
   inkscape:cy="-173.6001"
   inkscape:window-x="1"
   inkscape:window-y="21"
   inkscape:window-maximized="1"
   inkscape:current-layer="g8"
   fit-margin-top="0"
   fit-margin-left="0"
   fit-margin-right="0"
   fit-margin-bottom="0"><sodipodi:guide
     position="451.71875,-185.63887"
     orientation="0,1"
     id="guide853"
     inkscape:locked="false" /><sodipodi:guide
     position="495.97054,-165.48459"
     orientation="0,1"
     id="guide855"
     inkscape:locked="false" /></sodipodi:namedview>
<g
   id="g8"
   transform="translate(0,-63.439914)">
	<g
   id="g6"
   transform="matrix(0.16641132,0,0,0.16641132,0,53.064558)">
		<path
   d="M 20.195312,62.347656 C 9.1793125,62.347656 0,70.915641 0,81.931641 0,264.95902 0.18359375,287.66926 0.18359375,493.19531 c 0,11.016 9.18126565,19.58399 20.19726525,19.58399 H 325.25586 c 1.18575,-4.39253 2.776,-8.56757 4,-12.85157 l 35.49609,-106.48828 c 25.57247,-60.29892 85.90734,-90.6821 123.01172,-90.92686 V 81.931641 c 0.612,-11.016 -7.9547,-19.583985 -18.9707,-19.583985 h -19.58594 c -11.016,0 -20.19531,8.567985 -20.19531,19.583985 V 110.08398 H 383.11328 V 81.931641 c 0,-11.016 -8.56798,-19.583985 -19.58398,-19.583985 h -19.58399 c -11.017,0 -20.19726,8.567985 -20.19726,19.583985 V 110.08398 H 274.17773 V 81.931641 c 0,-11.016 -8.56798,-19.583985 -19.58398,-19.583985 h -20.80859 c -11.016,0 -20.19532,8.567985 -20.19532,19.583985 V 110.08398 H 164.01758 V 81.931641 c 0,-11.016 -8.56799,-19.583985 -19.58399,-19.583985 h -19.58398 c -11.016,0 -20.19727,8.567985 -20.19727,19.583985 V 110.08398 H 58.753906 V 81.931641 c 0,-11.016 -8.567984,-19.583985 -19.583984,-19.583985 z"
   id="path2"
   inkscape:connector-curvature="0"
   sodipodi:nodetypes="sssscccccsssccssssccssssccssssccsss"
   style="fill:#ffc700;fill-opacity:1" />
		<path
   d="m 586.996,162.224 c -10.404,-3.672 -22.032,2.448 -25.704,12.852 L 503.764,347.66 c -39.779,-3.672 -77.724,20.195 -91.188,59.363 l -29.988,89.965 c -2.448,7.344 0,15.299 6.12,19.584 v 0 c 1.836,-1.225 82.62,-78.949 168.3,-22.645 3.672,2.447 6.732,4.283 9.792,6.732 l 12.853,-37.945 c 12.852,-39.168 -3.061,-81.395 -36.721,-102.203 l 56.916,-171.972 c 3.673,-11.015 -2.448,-22.643 -12.852,-26.315 z"
   id="path4"
   style="fill:#ffc700;fill-opacity:1"
   inkscape:connector-curvature="0"
   sodipodi:nodetypes="scccccccccccs" />
	</g>
</g>
<g
   id="g10"
   transform="translate(0,-63.439914)">
</g>
<g
   id="g12"
   transform="translate(0,-63.439914)">
</g>
<g
   id="g14"
   transform="translate(0,-63.439914)">
</g>
<g
   id="g16"
   transform="translate(0,-63.439914)">
</g>
<g
   id="g18"
   transform="translate(0,-63.439914)">
</g>
<g
   id="g20"
   transform="translate(0,-63.439914)">
</g>
<g
   id="g22"
   transform="translate(0,-63.439914)">
</g>
<g
   id="g24"
   transform="translate(0,-63.439914)">
</g>
<g
   id="g26"
   transform="translate(0,-63.439914)">
</g>
<g
   id="g28"
   transform="translate(0,-63.439914)">
</g>
<g
   id="g30"
   transform="translate(0,-63.439914)">
</g>
<g
   id="g32"
   transform="translate(0,-63.439914)">
</g>
<g
   id="g34"
   transform="translate(0,-63.439914)">
</g>
<g
   id="g36"
   transform="translate(0,-63.439914)">
</g>
<g
   id="g38"
   transform="translate(0,-63.439914)">
</g>
</svg>