<?xml version="1.0" encoding="UTF-8"?>
<!DOCTYPE svg PUBLIC "-//W3C//DTD SVG 1.1//EN" "http://www.w3.org/Graphics/SVG/1.1/DTD/svg11.dtd">
<!-- Creator: CorelDRAW X8 -->
<svg xmlns="http://www.w3.org/2000/svg" xml:space="preserve" width="6328px" height="2970px" version="1.1" style="shape-rendering:geometricPrecision; text-rendering:geometricPrecision; image-rendering:optimizeQuality; fill-rule:evenodd; clip-rule:evenodd"
viewBox="0 0 6328 2970"
 xmlns:xlink="http://www.w3.org/1999/xlink">
 <defs>
  <style type="text/css">
   <![CDATA[
    .fil0 {fill:white;fill-rule:nonzero}
   ]]>
  </style>
 </defs>
 <g id="Capa_x0020_1">
  <metadata id="CorelCorpID_0Corel-Layer"/>
  <polygon class="fil0" points="430,622 430,664 0,664 0,18 422,18 422,60 46,60 46,314 375,314 375,354 46,354 46,622 "/>
  <path id="1" class="fil0" d="M925 664l-46 0 0 -264c0,-61 -9,-105 -26,-133 -17,-28 -45,-42 -82,-42 -20,0 -40,3 -60,11 -20,7 -38,17 -55,31 -17,13 -32,29 -44,46 -13,18 -23,38 -29,58l0 293 -45 0 0 -473 43 0 0 113c9,-18 21,-35 36,-50 14,-15 30,-27 48,-38 18,-10 37,-19 57,-24 20,-6 40,-9 61,-9 52,0 88,18 110,54 21,36 32,88 32,155l0 272z"/>
  <path id="2" class="fil0" d="M1029 426c0,-33 6,-65 17,-95 12,-29 28,-55 49,-77 20,-22 45,-39 73,-52 29,-13 60,-19 94,-19 43,0 81,10 114,29 33,19 57,46 74,81l-45 15c-14,-27 -34,-47 -60,-62 -25,-15 -54,-22 -85,-22 -26,0 -50,5 -72,15 -23,11 -42,25 -59,43 -17,18 -30,40 -40,64 -9,25 -14,51 -14,80 0,28 5,55 15,80 10,26 23,47 40,66 16,18 36,33 59,44 23,11 47,16 72,16 17,0 33,-2 49,-7 16,-5 31,-11 45,-19 13,-8 25,-17 35,-28 10,-10 17,-21 20,-33l45 13c-6,16 -15,32 -28,46 -12,14 -27,26 -44,37 -17,10 -36,18 -56,24 -21,6 -42,8 -64,8 -33,0 -64,-6 -93,-19 -28,-13 -53,-31 -74,-54 -21,-23 -37,-49 -49,-79 -12,-29 -18,-61 -18,-95z"/>
  <path id="3" class="fil0" d="M1752 673c-34,0 -64,-6 -93,-19 -28,-13 -52,-31 -73,-53 -21,-23 -37,-49 -48,-79 -12,-29 -17,-61 -17,-93 0,-34 5,-65 17,-95 12,-30 28,-56 49,-78 21,-23 45,-40 73,-54 28,-13 59,-19 92,-19 32,0 63,6 91,19 28,14 52,31 73,54 21,22 37,48 49,78 12,30 18,61 18,95 0,32 -6,64 -18,93 -12,30 -28,56 -49,79 -20,22 -45,40 -73,53 -28,13 -59,19 -91,19zm-186 -243c0,28 5,55 15,79 9,25 23,46 39,64 17,18 36,33 59,44 22,10 46,15 72,15 25,0 49,-5 72,-15 22,-11 42,-26 59,-45 17,-18 30,-40 40,-65 10,-24 14,-51 14,-79 0,-28 -4,-54 -14,-79 -10,-25 -23,-46 -40,-65 -17,-18 -37,-33 -59,-44 -22,-11 -46,-16 -71,-16 -26,0 -50,5 -72,16 -23,11 -42,26 -59,45 -17,19 -30,41 -40,66 -10,25 -15,52 -15,79z"/>
  <path id="4" class="fil0" d="M2479 664l-46 0 0 -264c0,-61 -8,-105 -26,-133 -17,-28 -44,-42 -82,-42 -20,0 -40,3 -60,11 -19,7 -38,17 -55,31 -17,13 -31,29 -44,46 -13,18 -22,38 -28,58l0 293 -46 0 0 -473 43 0 0 113c10,-18 22,-35 36,-50 14,-15 30,-27 48,-38 18,-10 37,-19 57,-24 20,-6 41,-9 62,-9 51,0 88,18 109,54 21,36 32,88 32,155l0 272z"/>
  <path id="5" class="fil0" d="M2823 642c-3,1 -7,3 -13,6 -5,4 -13,7 -21,10 -9,3 -19,6 -30,8 -11,3 -23,4 -35,4 -13,0 -25,-2 -36,-6 -12,-3 -21,-9 -30,-16 -8,-7 -15,-16 -20,-26 -5,-11 -7,-23 -7,-37l0 -357 -67 0 0 -37 67 0 0 -162 45 0 0 162 110 0 0 37 -110 0 0 346c0,18 6,31 18,40 13,9 26,13 41,13 19,0 35,-3 49,-10 14,-6 22,-10 25,-12l14 37z"/>
  <path id="6" class="fil0" d="M3127 232c-43,1 -80,14 -112,38 -32,24 -54,57 -67,99l0 295 -45 0 0 -473 44 0 0 117c16,-34 38,-61 65,-82 27,-21 56,-33 86,-36 7,0 12,-1 17,-1 5,0 9,0 12,0l0 43z"/>
  <path id="7" class="fil0" d="M3323 673c-22,0 -42,-3 -61,-11 -19,-8 -35,-18 -49,-31 -15,-13 -26,-28 -34,-46 -7,-18 -11,-37 -11,-58 0,-21 4,-40 14,-57 10,-17 23,-31 41,-44 17,-12 38,-22 62,-29 24,-7 51,-10 80,-10 26,0 51,2 77,7 26,4 49,10 70,18l0 -46c0,-45 -13,-81 -39,-107 -25,-26 -60,-40 -103,-40 -23,0 -48,5 -74,15 -25,10 -52,24 -78,42l-18 -31c61,-41 119,-62 173,-62 57,0 102,16 135,50 33,33 49,78 49,136l0 232c0,15 7,22 20,22l0 41c-3,1 -6,1 -9,2 -4,0 -7,0 -9,0 -12,0 -22,-4 -29,-12 -7,-8 -12,-18 -13,-30l0 -39c-22,29 -50,50 -84,66 -34,15 -70,22 -110,22zm9 -36c36,0 68,-7 97,-20 30,-13 52,-31 68,-53 10,-13 15,-25 15,-36l0 -84c-22,-8 -45,-15 -69,-19 -23,-4 -48,-6 -73,-6 -24,0 -46,2 -65,7 -19,5 -36,13 -50,22 -14,9 -25,20 -32,33 -8,13 -12,27 -12,43 0,16 3,31 9,45 6,14 15,26 26,36 11,10 24,18 39,23 14,6 30,9 47,9zm40 -545l-31 -15 55 -77 53 0 -77 92z"/>
  <path id="8" class="fil0" d="M3933 0l46 0 0 571c0,17 5,31 15,41 10,11 24,16 42,16 6,0 14,-1 24,-2 9,-2 18,-4 26,-7l9 36c-10,4 -23,8 -38,11 -15,2 -29,4 -39,4 -26,0 -46,-8 -62,-23 -15,-16 -23,-37 -23,-63l0 -584z"/>
  <path id="9" class="fil0" d="M4281 673c-21,0 -42,-3 -61,-11 -18,-8 -35,-18 -49,-31 -14,-13 -25,-28 -33,-46 -8,-18 -12,-37 -12,-58 0,-21 5,-40 14,-57 10,-17 24,-31 41,-44 17,-12 38,-22 62,-29 24,-7 51,-10 80,-10 26,0 51,2 77,7 26,4 49,10 70,18l0 -46c0,-45 -13,-81 -38,-107 -26,-26 -60,-40 -104,-40 -23,0 -48,5 -73,15 -26,10 -52,24 -79,42l-17 -31c60,-41 118,-62 172,-62 58,0 102,16 135,50 33,33 49,78 49,136l0 232c0,15 7,22 20,22l0 41c-3,1 -6,1 -9,2 -4,0 -6,0 -9,0 -12,0 -22,-4 -29,-12 -7,-8 -12,-18 -13,-30l0 -39c-22,29 -49,50 -83,66 -34,15 -71,22 -111,22zm10 -36c35,0 67,-7 96,-20 30,-13 52,-31 68,-53 10,-13 15,-25 15,-36l0 -84c-22,-8 -45,-15 -68,-19 -24,-4 -49,-6 -74,-6 -24,0 -45,2 -65,7 -19,5 -36,13 -50,22 -14,9 -25,20 -32,33 -8,13 -11,27 -11,43 0,16 3,31 9,45 6,14 14,26 25,36 11,10 24,18 39,23 15,6 31,9 48,9z"/>
  <path class="fil0" d="M217 2786c-33,0 -63,-7 -89,-20 -27,-14 -49,-32 -68,-55 -20,-23 -34,-49 -45,-78 -10,-29 -15,-60 -15,-91 0,-33 6,-64 18,-94 12,-30 28,-56 48,-78 20,-23 44,-41 72,-54 27,-14 57,-20 89,-20 37,0 71,10 103,29 32,20 58,45 76,75l0 -96 42 0 0 602c0,15 6,23 19,23l0 40c-3,1 -6,1 -8,1 -3,0 -5,0 -8,0 -14,0 -25,-4 -35,-13 -9,-9 -14,-21 -14,-35l0 -247c-50,74 -111,111 -185,111zm11 -41c20,0 39,-3 56,-10 18,-6 34,-15 48,-26 15,-11 28,-24 40,-39 12,-15 22,-30 30,-47l0 -154c-2,-18 -9,-35 -20,-50 -11,-16 -24,-30 -40,-42 -16,-12 -34,-22 -53,-29 -18,-8 -37,-11 -55,-11 -27,0 -53,6 -76,18 -23,11 -43,27 -59,46 -17,19 -30,41 -39,66 -9,25 -14,50 -14,75 0,28 5,54 14,78 9,24 22,46 38,64 16,19 35,34 57,45 22,11 47,16 73,16z"/>
  <path id="1" class="fil0" d="M736 2786c-101,0 -151,-69 -151,-209l0 -273 46 0 0 267c0,116 39,174 119,174 20,0 39,-3 58,-10 19,-7 36,-17 53,-29 16,-13 31,-28 43,-45 13,-18 22,-37 30,-59l0 -298 45 0 0 409c0,16 7,23 19,23l0 41c-3,1 -6,1 -8,1 -2,0 -4,0 -5,0 -13,0 -23,-4 -33,-11 -9,-8 -14,-18 -14,-31l0 -71c-20,38 -49,68 -85,89 -36,22 -75,32 -117,32z"/>
  <path id="2" class="fil0" d="M1325 2786c-33,0 -64,-6 -93,-19 -28,-13 -53,-31 -74,-54 -21,-23 -37,-49 -49,-79 -12,-29 -18,-61 -18,-95 0,-34 6,-65 18,-94 12,-30 28,-56 49,-78 20,-22 45,-39 73,-52 28,-13 58,-19 91,-19 34,0 65,6 93,19 29,13 53,31 74,53 20,22 36,48 48,78 11,29 17,60 17,93 0,3 0,7 0,11 0,5 0,8 -1,9l-415 0c2,27 9,52 20,76 10,23 24,43 41,60 17,17 36,31 58,40 22,10 45,15 70,15 16,0 32,-2 48,-7 16,-4 30,-11 44,-19 14,-7 26,-17 37,-28 10,-11 18,-24 25,-37l40 11c-7,17 -17,32 -30,47 -13,14 -28,26 -45,37 -18,10 -37,18 -57,24 -21,5 -42,8 -64,8zm186 -264c-2,-28 -8,-53 -19,-76 -11,-23 -24,-43 -41,-60 -17,-16 -36,-29 -58,-39 -22,-9 -45,-14 -70,-14 -25,0 -48,5 -70,14 -22,10 -41,23 -58,39 -16,17 -30,37 -40,60 -10,24 -16,49 -18,76l374 0z"/>
  <polygon class="fil0" points="2048,2369 2048,2821 1973,2821 1973,2229 2031,2229 2398,2690 2398,2230 2473,2230 2473,2821 2410,2821 "/>
  <polygon id="1" class="fil0" points="3017,2754 3017,2821 2615,2821 2615,2229 3009,2229 3009,2296 2690,2296 2690,2488 2968,2488 2968,2550 2690,2550 2690,2754 "/>
  <path id="2" class="fil0" d="M3069 2521c0,-36 7,-71 19,-106 13,-36 31,-67 55,-96 24,-28 54,-50 89,-68 35,-17 75,-25 119,-25 53,0 99,12 136,35 38,24 66,56 85,94l-60 38c-9,-19 -19,-34 -32,-47 -12,-13 -26,-23 -41,-31 -14,-8 -30,-13 -45,-17 -16,-3 -31,-5 -46,-5 -33,0 -62,7 -87,21 -25,13 -47,31 -64,53 -17,22 -30,47 -39,74 -8,28 -13,55 -13,83 0,31 5,61 16,89 10,28 24,53 43,75 18,21 40,39 65,51 25,13 52,20 82,20 15,0 31,-2 48,-6 16,-4 32,-10 47,-19 15,-9 29,-19 42,-33 13,-13 24,-28 32,-47l62 35c-9,22 -22,41 -39,58 -17,17 -36,32 -58,43 -21,12 -44,21 -68,27 -24,6 -47,9 -70,9 -40,0 -78,-9 -112,-27 -33,-17 -63,-41 -88,-69 -24,-29 -44,-61 -57,-98 -14,-36 -21,-73 -21,-111z"/>
  <polygon id="3" class="fil0" points="4079,2754 4079,2821 3677,2821 3677,2229 4071,2229 4071,2296 3752,2296 3752,2488 4030,2488 4030,2550 3752,2550 3752,2754 "/>
  <path id="4" class="fil0" d="M4529 2353c-7,-8 -15,-15 -27,-22 -11,-8 -23,-14 -37,-20 -14,-6 -29,-10 -46,-14 -16,-4 -33,-5 -51,-5 -46,0 -80,8 -101,25 -22,18 -32,41 -32,71 0,16 3,30 9,40 6,11 16,20 29,27 13,8 29,14 48,20 20,6 43,11 70,18 30,6 58,14 83,22 24,9 46,20 63,33 18,12 31,28 40,46 9,19 14,41 14,68 0,28 -6,53 -17,74 -11,21 -26,38 -45,51 -19,14 -42,24 -68,30 -26,7 -55,10 -85,10 -46,0 -89,-7 -130,-21 -41,-14 -78,-35 -111,-62l35 -64c9,10 21,19 35,29 14,9 30,18 48,25 19,8 38,14 59,18 21,5 43,7 65,7 43,0 75,-7 99,-22 23,-15 35,-38 35,-68 0,-16 -4,-30 -11,-42 -8,-11 -19,-21 -33,-29 -15,-9 -33,-16 -54,-22 -22,-7 -46,-13 -73,-20 -30,-7 -57,-15 -79,-23 -23,-9 -42,-19 -58,-30 -15,-12 -26,-26 -34,-43 -8,-17 -12,-37 -12,-60 0,-28 5,-53 16,-75 11,-22 25,-40 44,-55 19,-15 42,-26 68,-34 26,-7 54,-11 85,-11 40,0 76,6 108,18 33,12 61,29 86,49l-35 61z"/>
  <polygon id="5" class="fil0" points="4689,2821 4689,2229 4764,2229 4764,2821 "/>
  <polygon id="6" class="fil0" points="5333,2296 5129,2296 5129,2821 5054,2821 5054,2296 4849,2296 4849,2229 5333,2229 "/>
  <path id="7" class="fil0" d="M5543 2229l63 0 242 592 -80 0 -70 -173 -249 0 -69 173 -80 0 243 -592zm138 360l-107 -273 -110 273 217 0z"/>
  <path id="8" class="fil0" d="M6267 2353c-7,-8 -16,-15 -27,-22 -11,-8 -24,-14 -38,-20 -13,-6 -29,-10 -45,-14 -16,-4 -34,-5 -51,-5 -46,0 -80,8 -102,25 -21,18 -32,41 -32,71 0,16 3,30 9,40 7,11 16,20 29,27 13,8 29,14 49,20 19,6 43,11 69,18 31,6 58,14 83,22 25,9 46,20 64,33 17,12 30,28 40,46 9,19 13,41 13,68 0,28 -5,53 -16,74 -11,21 -27,38 -46,51 -19,14 -42,24 -68,30 -26,7 -54,10 -85,10 -45,0 -89,-7 -130,-21 -40,-14 -78,-35 -111,-62l36 -64c9,10 20,19 35,29 14,9 30,18 48,25 18,8 38,14 58,18 21,5 43,7 66,7 42,0 75,-7 98,-22 24,-15 35,-38 35,-68 0,-16 -3,-30 -11,-42 -7,-11 -18,-21 -33,-29 -14,-9 -32,-16 -54,-22 -21,-7 -45,-13 -73,-20 -30,-7 -56,-15 -79,-23 -23,-9 -42,-19 -57,-30 -15,-12 -27,-26 -35,-43 -7,-17 -11,-37 -11,-60 0,-28 5,-53 15,-75 11,-22 26,-40 45,-55 19,-15 41,-26 67,-34 26,-7 55,-11 85,-11 40,0 77,6 109,18 32,12 61,29 86,49l-35 61z"/>
  <path class="fil0" d="M334 1753l0 -592 247 0c26,0 51,5 72,16 22,11 41,25 57,43 16,19 28,39 37,61 9,23 14,46 14,69 0,25 -4,48 -13,71 -8,23 -20,43 -35,61 -16,18 -34,32 -55,42 -22,11 -46,16 -72,16l-176 0 0 213 -76 0zm76 -279l172 0c16,0 30,-4 42,-10 13,-6 24,-15 32,-27 9,-11 16,-24 21,-39 5,-15 8,-31 8,-48 0,-17 -3,-33 -9,-48 -6,-15 -14,-28 -23,-39 -10,-12 -21,-20 -35,-26 -13,-6 -26,-9 -41,-9l-167 0 0 246z"/>
  <path id="1" class="fil0" d="M854 1753l0 -592 254 0c26,0 50,5 72,16 22,11 41,25 57,43 15,19 28,39 37,61 9,23 13,46 13,69 0,21 -3,41 -9,60 -6,19 -14,36 -25,52 -11,15 -24,29 -39,40 -15,11 -32,19 -51,24l143 227 -85 0 -135 -213 -157 0 0 213 -75 0zm75 -279l180 0c15,0 29,-4 42,-10 12,-7 23,-16 32,-28 9,-11 16,-24 21,-39 5,-15 7,-31 7,-47 0,-17 -3,-32 -9,-47 -5,-15 -13,-28 -23,-39 -10,-12 -21,-20 -34,-27 -13,-6 -27,-9 -41,-9l-175 0 0 246z"/>
  <path id="2" class="fil0" d="M1642 1757c-41,0 -79,-8 -114,-25 -34,-17 -63,-40 -88,-68 -24,-28 -43,-60 -56,-96 -14,-36 -20,-73 -20,-111 0,-40 7,-77 21,-114 14,-36 34,-68 59,-95 25,-28 54,-50 89,-67 34,-16 71,-24 111,-24 42,0 80,8 113,26 34,17 64,40 88,69 25,28 43,60 57,96 13,36 20,72 20,110 0,39 -7,77 -21,113 -15,36 -34,68 -59,96 -25,27 -54,49 -88,66 -34,16 -72,24 -112,24zm-202 -300c0,30 5,59 14,87 10,28 24,53 42,75 17,21 39,39 64,51 25,13 53,20 83,20 32,0 60,-7 85,-21 25,-13 47,-31 64,-53 18,-22 31,-47 40,-75 9,-28 14,-56 14,-84 0,-30 -5,-59 -15,-87 -9,-28 -23,-53 -41,-74 -19,-22 -40,-39 -65,-52 -24,-13 -52,-19 -82,-19 -32,0 -60,7 -85,20 -25,13 -46,31 -64,53 -17,21 -31,46 -40,74 -10,28 -14,56 -14,85z"/>
  <path id="3" class="fil0" d="M2026 1753l0 -592 247 0c26,0 50,5 72,16 22,11 41,25 57,43 16,19 28,39 37,61 9,23 13,46 13,69 0,25 -4,48 -12,71 -9,23 -20,43 -36,61 -15,18 -33,32 -55,42 -21,11 -45,16 -71,16l-177 0 0 213 -75 0zm75 -279l173 0c15,0 29,-4 42,-10 12,-6 23,-15 32,-27 9,-11 16,-24 21,-39 5,-15 7,-31 7,-48 0,-17 -3,-33 -8,-48 -6,-15 -14,-28 -24,-39 -9,-12 -21,-20 -34,-26 -13,-6 -27,-9 -41,-9l-168 0 0 246z"/>
  <polygon id="4" class="fil0" points="2546,1753 2546,1161 2621,1161 2621,1753 "/>
  <polygon id="5" class="fil0" points="3165,1686 3165,1753 2763,1753 2763,1161 3157,1161 3157,1228 2838,1228 2838,1419 3115,1419 3115,1482 2838,1482 2838,1686 "/>
  <path id="6" class="fil0" d="M3267 1753l0 -592 205 0c48,0 89,8 125,23 36,16 66,37 90,64 24,26 42,58 54,93 12,36 18,74 18,115 0,45 -7,86 -20,122 -14,37 -33,68 -58,94 -25,26 -55,46 -91,60 -35,14 -74,21 -118,21l-205 0zm416 -297c0,-33 -5,-64 -14,-92 -9,-28 -23,-52 -41,-72 -18,-20 -40,-36 -66,-47 -26,-12 -56,-17 -90,-17l-130 0 0 458 130 0c34,0 65,-6 91,-17 26,-12 48,-28 66,-49 17,-20 31,-45 40,-73 9,-28 14,-58 14,-91z"/>
  <path id="7" class="fil0" d="M4024 1161l63 0 242 592 -80 0 -70 -173 -249 0 -69 173 -80 0 243 -592zm138 360l-107 -273 -110 273 217 0z"/>
  <path id="8" class="fil0" d="M4408 1753l0 -592 206 0c47,0 88,8 124,23 36,16 66,37 90,64 24,26 42,58 54,93 12,36 18,74 18,115 0,45 -7,86 -20,122 -14,37 -33,68 -58,94 -25,26 -55,46 -90,60 -36,14 -75,21 -118,21l-206 0zm416 -297c0,-33 -5,-64 -14,-92 -9,-28 -23,-52 -41,-72 -18,-20 -40,-36 -66,-47 -26,-12 -56,-17 -89,-17l-131 0 0 458 131 0c33,0 64,-6 90,-17 26,-12 48,-28 66,-49 17,-20 31,-45 40,-73 9,-28 14,-58 14,-91z"/>
 </g>
</svg>
