<?xml version="1.0" encoding="UTF-8"?>
<!DOCTYPE svg PUBLIC "-//W3C//DTD SVG 1.1//EN" "http://www.w3.org/Graphics/SVG/1.1/DTD/svg11.dtd">
<!-- Creator: CorelDRAW X8 -->
<svg xmlns="http://www.w3.org/2000/svg" xml:space="preserve" width="5360px" height="2962px" version="1.1" style="shape-rendering:geometricPrecision; text-rendering:geometricPrecision; image-rendering:optimizeQuality; fill-rule:evenodd; clip-rule:evenodd"
viewBox="0 0 5360 2962"
 xmlns:xlink="http://www.w3.org/1999/xlink">
 <defs>
  <style type="text/css">
   <![CDATA[
    .fil0 {fill:white;fill-rule:nonzero}
   ]]>
  </style>
 </defs>
 <g id="Capa_x0020_1">
  <metadata id="CorelCorpID_0Corel-Layer"/>
  <path class="fil0" d="M269 608c44,0 80,-8 109,-25 29,-16 52,-38 68,-64 17,-27 29,-57 36,-91 7,-34 10,-69 10,-103l0 -325 47 0 0 325c0,43 -5,84 -14,124 -10,39 -25,74 -46,104 -22,30 -49,54 -83,71 -34,18 -76,27 -126,27 -51,0 -94,-10 -129,-28 -35,-19 -62,-43 -83,-74 -21,-30 -36,-65 -45,-104 -9,-39 -13,-79 -13,-120l0 -325 46 0 0 325c0,36 4,71 11,105 7,33 19,64 36,90 18,26 40,48 69,64 28,16 64,24 107,24z"/>
  <path id="1" class="fil0" d="M1044 646l-46 0 0 -264c0,-61 -8,-106 -26,-134 -17,-27 -44,-41 -82,-41 -20,0 -40,3 -60,10 -19,8 -38,18 -55,31 -17,14 -32,29 -44,47 -13,18 -22,37 -28,58l0 293 -46 0 0 -473 43 0 0 113c9,-18 21,-35 36,-50 14,-15 30,-27 48,-38 18,-11 37,-19 57,-25 20,-5 40,-8 62,-8 51,0 88,18 109,54 21,36 32,88 32,155l0 272z"/>
  <path class="fil0" d="M460 2919c3,1 7,1 13,1 6,0 12,0 17,-1 5,0 10,-2 15,-4 4,-2 7,-5 10,-8 3,-3 7,-10 13,-21 5,-10 12,-25 21,-45 8,-20 20,-47 34,-82l-211 -473 47 0 189 428 175 -428 45 0 -259 622c-7,17 -18,30 -33,40 -14,9 -35,14 -60,14 -3,0 -5,0 -8,0 -3,0 -5,0 -8,-1l0 -42z"/>
  <path id="1" class="fil0" d="M1339 2736c-2,1 -6,4 -12,7 -6,3 -13,7 -22,10 -8,3 -18,5 -29,8 -11,2 -23,3 -36,3 -12,0 -24,-1 -36,-5 -11,-4 -21,-9 -29,-16 -9,-8 -15,-16 -20,-27 -5,-10 -8,-22 -8,-36l0 -357 -66 0 0 -37 66 0 0 -162 46 0 0 162 110 0 0 37 -110 0 0 346c0,17 6,31 18,39 12,9 26,14 41,14 19,0 35,-3 49,-10 13,-6 22,-10 25,-12l13 36z"/>
  <path id="2" class="fil0" d="M1566 2768c-101,0 -151,-70 -151,-209l0 -273 45 0 0 266c0,117 40,175 120,175 20,0 39,-3 58,-10 19,-7 36,-17 53,-29 16,-13 31,-28 43,-45 12,-18 22,-37 30,-59l0 -298 45 0 0 409c0,15 6,23 19,23l0 41c-3,1 -6,1 -8,1 -2,0 -4,0 -6,0 -12,0 -22,-4 -32,-11 -9,-8 -14,-18 -14,-31l0 -71c-21,38 -49,68 -85,89 -36,21 -75,32 -117,32z"/>
  <polygon class="fil0" points="2220,2803 2220,2211 2611,2211 2611,2277 2295,2277 2295,2475 2561,2475 2561,2538 2295,2538 2295,2803 "/>
  <path id="1" class="fil0" d="M2840 2211l64 0 241 592 -80 0 -70 -174 -248 0 -69 174 -81 0 243 -592zm139 360l-107 -273 -110 273 217 0z"/>
  <polygon id="2" class="fil0" points="3737,2803 3737,2345 3540,2696 3497,2696 3300,2345 3300,2803 3225,2803 3225,2211 3304,2211 3518,2595 3734,2211 3812,2211 3812,2803 "/>
  <polygon id="3" class="fil0" points="3954,2803 3954,2211 4029,2211 4029,2803 "/>
  <polygon id="4" class="fil0" points="4171,2803 4171,2211 4246,2211 4246,2736 4576,2736 4576,2803 "/>
  <polygon id="5" class="fil0" points="4658,2803 4658,2211 4733,2211 4733,2803 "/>
  <path id="6" class="fil0" d="M5055 2211l63 0 242 592 -80 0 -70 -174 -249 0 -69 174 -80 0 243 -592zm138 360l-107 -273 -110 273 217 0z"/>
  <polygon class="fil0" points="1404,646 1404,54 1479,54 1479,579 1809,579 1809,646 "/>
  <path id="1" class="fil0" d="M2114 583c34,0 63,-7 86,-20 22,-14 41,-31 54,-52 14,-22 23,-46 29,-74 5,-27 8,-55 8,-84l0 -299 75 0 0 299c0,40 -4,78 -13,114 -10,36 -24,68 -44,95 -20,27 -46,49 -78,64 -32,16 -71,24 -117,24 -47,0 -87,-8 -119,-25 -32,-16 -58,-39 -78,-66 -20,-28 -34,-59 -42,-95 -9,-36 -13,-73 -13,-111l0 -299 75 0 0 299c0,30 3,58 9,86 5,27 15,52 29,73 13,21 31,38 54,51 22,13 51,20 85,20z"/>
  <path id="2" class="fil0" d="M2918 566c-53,56 -113,84 -180,84 -40,0 -77,-8 -110,-26 -34,-17 -63,-39 -87,-68 -25,-28 -44,-60 -58,-96 -14,-36 -22,-73 -22,-112 0,-40 7,-78 21,-114 14,-35 33,-67 58,-95 24,-27 53,-49 87,-65 34,-16 71,-24 111,-24 57,0 104,12 141,36 37,23 65,55 85,93l-58 40c-18,-34 -41,-60 -71,-77 -29,-16 -62,-25 -99,-25 -30,0 -57,7 -82,20 -24,13 -45,30 -62,52 -18,21 -31,46 -40,74 -10,28 -15,57 -15,87 0,32 6,62 16,90 11,28 25,52 44,74 18,21 40,38 65,50 25,13 52,19 81,19 65,0 123,-31 175,-94l0 -81 -128 0 0 -57 191 0 0 295 -63 0 0 -80z"/>
  <path id="3" class="fil0" d="M3276 54l63 0 242 592 -80 0 -70 -173 -249 0 -69 173 -80 0 243 -592zm138 360l-107 -273 -110 273 217 0z"/>
  <path id="4" class="fil0" d="M3660 646l0 -592 254 0c26,0 50,5 72,16 22,11 41,25 57,44 15,18 28,38 37,60 9,23 13,46 13,69 0,21 -3,41 -9,60 -6,19 -14,36 -25,52 -11,16 -24,29 -39,40 -15,11 -32,19 -51,24l143 227 -85 0 -135 -213 -157 0 0 213 -75 0zm75 -279l179 0c16,0 30,-4 43,-10 12,-7 23,-16 32,-27 9,-12 16,-25 21,-40 5,-15 7,-31 7,-47 0,-16 -3,-32 -9,-47 -6,-15 -13,-28 -23,-39 -10,-12 -21,-20 -34,-27 -13,-6 -27,-9 -42,-9l-174 0 0 246z"/>
  <path class="fil0" d="M1190 1744c-40,0 -77,-11 -108,-32 -32,-22 -58,-48 -77,-79l0 296 -46 0 0 -667 42 0 0 94c19,-30 45,-55 77,-74 32,-19 66,-29 102,-29 33,0 63,7 91,21 28,14 52,33 72,55 20,23 36,49 47,79 11,30 17,60 17,91 0,33 -5,64 -16,94 -10,30 -25,56 -44,78 -19,23 -42,40 -68,53 -27,13 -57,20 -89,20zm-11 -41c28,0 53,-6 75,-17 22,-12 42,-27 57,-46 16,-19 28,-41 37,-66 8,-24 12,-49 12,-75 0,-27 -4,-53 -14,-78 -10,-24 -23,-46 -41,-65 -17,-19 -37,-34 -60,-45 -23,-11 -48,-17 -74,-17 -16,0 -34,4 -52,11 -19,7 -36,16 -52,28 -17,12 -31,25 -42,41 -12,15 -19,31 -20,48l0 155c8,18 18,34 30,50 12,15 25,28 41,40 15,11 31,20 49,26 17,7 36,10 54,10z"/>
  <path id="1" class="fil0" d="M1633 1744c-22,0 -43,-4 -61,-11 -19,-8 -36,-18 -50,-31 -14,-13 -25,-29 -33,-47 -8,-18 -12,-37 -12,-58 0,-20 5,-39 14,-56 10,-17 24,-32 41,-44 17,-13 38,-22 62,-29 25,-7 51,-11 80,-11 26,0 51,3 77,7 26,5 49,11 70,19l0 -47c0,-45 -13,-80 -38,-107 -26,-26 -60,-39 -104,-39 -23,0 -48,5 -73,14 -26,10 -52,24 -79,42l-17 -31c60,-41 118,-62 173,-62 57,0 101,17 134,50 33,33 49,79 49,137l0 231c0,15 7,23 20,23l0 41c-3,0 -6,1 -9,1 -3,0 -6,1 -9,1 -12,0 -22,-4 -29,-13 -7,-8 -11,-18 -13,-29l0 -39c-21,28 -49,50 -83,65 -34,15 -71,23 -110,23zm9 -36c35,0 67,-7 97,-20 29,-14 52,-31 67,-53 10,-13 15,-25 15,-37l0 -83c-22,-9 -45,-15 -68,-19 -24,-5 -49,-7 -74,-7 -24,0 -45,3 -65,8 -19,5 -36,12 -50,21 -14,9 -24,20 -32,33 -8,14 -11,28 -11,44 0,15 3,30 9,44 6,14 14,26 25,36 11,10 24,18 39,24 15,6 31,9 48,9z"/>
  <path id="2" class="fil0" d="M2229 1303c-43,1 -80,13 -112,37 -32,24 -54,57 -67,99l0 296 -45 0 0 -473 43 0 0 116c17,-33 38,-60 65,-81 27,-21 56,-33 87,-36 6,-1 12,-1 17,-1 5,0 9,0 12,0l0 43z"/>
  <path id="3" class="fil0" d="M2425 1744c-22,0 -42,-4 -61,-11 -19,-8 -35,-18 -49,-31 -15,-13 -26,-29 -34,-47 -8,-18 -11,-37 -11,-58 0,-20 4,-39 14,-56 10,-17 23,-32 41,-44 17,-13 38,-22 62,-29 24,-7 51,-11 80,-11 25,0 51,3 77,7 26,5 49,11 69,19l0 -47c0,-45 -12,-80 -38,-107 -25,-26 -60,-39 -103,-39 -24,0 -48,5 -74,14 -26,10 -52,24 -78,42l-18 -31c61,-41 119,-62 173,-62 57,0 102,17 135,50 33,33 49,79 49,137l0 231c0,15 7,23 20,23l0 41c-3,0 -6,1 -10,1 -3,0 -6,1 -8,1 -12,0 -22,-4 -29,-13 -8,-8 -12,-18 -13,-29l0 -39c-22,28 -50,50 -84,65 -34,15 -70,23 -110,23zm9 -36c35,0 68,-7 97,-20 30,-14 52,-31 68,-53 10,-13 14,-25 14,-37l0 -83c-21,-9 -44,-15 -68,-19 -23,-5 -48,-7 -73,-7 -24,0 -46,3 -65,8 -20,5 -36,12 -50,21 -14,9 -25,20 -32,33 -8,14 -12,28 -12,44 0,15 3,30 9,44 6,14 15,26 26,36 11,10 24,18 38,24 15,6 31,9 48,9z"/>
  <polygon id="4" class="fil0" points="2992,1089 3238,1677 3483,1089 3533,1089 3260,1735 3217,1735 2943,1089 "/>
  <path id="5" class="fil0" d="M3866 1739c-45,0 -86,-9 -123,-28 -37,-19 -69,-43 -96,-74 -26,-30 -47,-65 -62,-104 -14,-40 -21,-80 -21,-121 0,-43 7,-85 23,-124 15,-39 36,-74 63,-105 27,-30 59,-54 96,-72 37,-18 77,-27 121,-27 44,0 86,10 123,29 37,19 69,44 95,75 27,31 47,66 62,105 14,39 22,79 22,119 0,43 -8,85 -24,124 -15,40 -36,75 -63,105 -27,30 -59,54 -96,72 -37,17 -77,26 -120,26zm-256 -327c0,37 6,72 19,107 12,34 30,64 52,91 23,26 50,47 82,63 31,16 66,24 104,24 38,0 73,-9 105,-25 31,-16 58,-38 80,-65 22,-27 39,-58 51,-91 12,-34 18,-69 18,-104 0,-37 -6,-73 -19,-107 -13,-34 -30,-65 -53,-91 -23,-27 -50,-48 -81,-63 -30,-16 -64,-24 -101,-24 -39,0 -74,8 -106,25 -32,16 -59,38 -81,65 -22,27 -40,57 -52,91 -12,34 -18,69 -18,104z"/>
  <path id="6" class="fil0" d="M4669 1196c-42,-47 -101,-70 -177,-70 -63,0 -109,12 -138,36 -29,24 -43,56 -43,97 0,21 3,38 11,51 7,14 18,26 34,35 15,10 35,18 58,25 24,7 53,14 86,21 34,7 66,15 94,24 28,9 52,20 72,33 20,14 35,30 45,49 11,20 16,44 16,72 0,29 -5,54 -16,75 -12,21 -27,39 -48,53 -20,14 -44,25 -73,32 -28,8 -59,11 -94,11 -100,0 -186,-32 -255,-96l24 -37c27,28 61,51 100,67 40,17 84,25 133,25 56,0 101,-10 132,-31 32,-20 48,-51 48,-93 0,-22 -4,-40 -13,-54 -8,-15 -21,-28 -37,-39 -17,-11 -38,-20 -64,-28 -25,-8 -55,-16 -89,-23 -34,-7 -65,-15 -91,-23 -27,-9 -49,-19 -67,-31 -17,-13 -31,-28 -40,-45 -9,-18 -14,-40 -14,-67 0,-29 6,-55 17,-77 11,-23 27,-41 47,-57 20,-15 44,-27 72,-35 28,-8 59,-12 93,-12 42,0 79,6 112,19 32,12 62,31 89,57l-24 36z"/>
 </g>
</svg>
