<?xml version="1.0" encoding="UTF-8"?>
<!DOCTYPE svg PUBLIC "-//W3C//DTD SVG 1.1//EN" "http://www.w3.org/Graphics/SVG/1.1/DTD/svg11.dtd">
<!-- Creator: CorelDRAW X8 -->
<svg xmlns="http://www.w3.org/2000/svg" xml:space="preserve" width="6520px" height="2809px" version="1.1" style="shape-rendering:geometricPrecision; text-rendering:geometricPrecision; image-rendering:optimizeQuality; fill-rule:evenodd; clip-rule:evenodd"
viewBox="0 0 6520 2809"
 xmlns:xlink="http://www.w3.org/1999/xlink">
 <defs>
  <style type="text/css">
   <![CDATA[
    .fil0 {fill:white;fill-rule:nonzero}
   ]]>
  </style>
 </defs>
 <g id="Capa_x0020_1">
  <metadata id="CorelCorpID_0Corel-Layer"/>
  <polygon class="fil0" points="51,0 277,358 503,0 555,0 300,402 300,646 254,646 254,400 0,0 "/>
  <path id="1" class="fil0" d="M955 655c-100,0 -151,-70 -151,-209l0 -273 46 0 0 267c0,116 40,174 119,174 20,0 40,-3 58,-10 19,-7 37,-17 53,-29 17,-13 31,-28 43,-45 13,-18 23,-37 30,-59l0 -298 45 0 0 409c0,16 7,23 20,23l0 41c-3,1 -6,1 -9,1 -2,0 -4,0 -5,0 -12,0 -23,-4 -32,-11 -10,-8 -15,-18 -15,-31l0 -71c-20,38 -48,68 -85,89 -36,22 -75,32 -117,32z"/>
  <path id="2" class="fil0" d="M1730 646l-46 0 0 -264c0,-61 -8,-106 -26,-134 -17,-27 -44,-41 -82,-41 -20,0 -40,3 -60,10 -19,8 -38,18 -55,31 -17,14 -31,29 -44,47 -13,18 -22,37 -28,58l0 293 -46 0 0 -473 43 0 0 113c10,-18 22,-35 36,-50 14,-15 30,-27 48,-38 18,-11 37,-19 57,-25 20,-5 41,-8 62,-8 51,0 88,18 109,54 21,36 32,88 32,155l0 272z"/>
  <polygon class="fil0" points="1946,2803 1946,2211 2021,2211 2021,2803 "/>
  <polygon id="1" class="fil0" points="2675,2803 2675,2345 2478,2696 2436,2696 2238,2345 2238,2803 2163,2803 2163,2211 2242,2211 2456,2595 2672,2211 2750,2211 2750,2803 "/>
  <path id="2" class="fil0" d="M2892 2803l0 -592 247 0c26,0 50,5 72,16 22,11 41,25 57,43 15,18 28,39 37,61 9,23 13,46 13,69 0,25 -4,48 -12,71 -9,23 -21,43 -36,61 -15,18 -34,32 -55,42 -21,11 -45,16 -71,16l-177 0 0 213 -75 0zm75 -279l173 0c15,0 29,-4 42,-10 12,-6 23,-15 32,-27 9,-11 16,-24 21,-39 5,-15 7,-31 7,-48 0,-17 -3,-33 -9,-48 -5,-15 -13,-28 -23,-39 -10,-12 -21,-20 -34,-26 -13,-6 -27,-10 -41,-10l-168 0 0 247z"/>
  <path id="3" class="fil0" d="M3655 2740c35,0 63,-7 86,-20 23,-14 41,-31 55,-53 13,-21 23,-45 28,-73 6,-27 9,-55 9,-84l0 -299 75 0 0 299c0,40 -5,78 -14,114 -9,36 -24,67 -44,95 -20,27 -46,49 -78,64 -32,16 -71,24 -116,24 -47,0 -87,-8 -119,-25 -33,-17 -59,-39 -78,-66 -20,-28 -34,-59 -43,-95 -9,-36 -13,-73 -13,-111l0 -299 75 0 0 299c0,30 3,58 9,86 6,27 16,52 29,73 14,21 32,38 54,51 23,13 51,20 85,20z"/>
  <polygon id="4" class="fil0" points="4041,2803 4041,2211 4116,2211 4116,2736 4447,2736 4447,2803 "/>
  <path id="5" class="fil0" d="M4876 2335c-6,-8 -15,-15 -26,-22 -12,-8 -24,-14 -38,-20 -14,-6 -29,-11 -45,-14 -17,-4 -34,-6 -52,-6 -46,0 -80,9 -101,26 -22,17 -32,41 -32,71 0,16 3,30 9,40 6,11 16,20 29,27 13,8 29,14 49,20 19,5 42,11 69,17 30,7 58,15 83,23 24,9 46,20 63,32 18,13 31,29 40,47 9,18 14,41 14,68 0,28 -6,53 -17,73 -11,21 -26,39 -45,52 -19,14 -42,24 -68,30 -26,7 -55,10 -85,10 -46,0 -89,-7 -130,-21 -41,-15 -78,-35 -111,-63l36 -63c8,9 20,19 34,28 14,10 30,18 49,26 18,7 37,13 58,18 21,5 43,7 65,7 43,0 75,-7 99,-22 23,-15 35,-38 35,-68 0,-17 -4,-31 -11,-42 -8,-11 -19,-21 -33,-30 -15,-8 -33,-15 -54,-22 -22,-6 -46,-13 -73,-19 -30,-7 -57,-15 -79,-24 -23,-8 -42,-18 -58,-30 -15,-11 -26,-26 -34,-42 -8,-17 -12,-37 -12,-60 0,-29 5,-54 16,-75 11,-22 25,-40 44,-55 19,-15 42,-27 68,-34 26,-8 54,-11 85,-11 40,0 76,6 108,18 33,12 61,29 86,49l-35 61z"/>
  <path id="6" class="fil0" d="M5277 2807c-42,0 -80,-8 -114,-25 -34,-17 -64,-40 -88,-68 -25,-28 -44,-60 -57,-96 -13,-36 -20,-73 -20,-111 0,-40 7,-77 21,-114 14,-36 34,-68 59,-95 25,-28 55,-50 89,-67 34,-16 71,-24 111,-24 42,0 80,8 114,26 34,17 63,40 87,69 25,28 44,60 57,96 13,36 20,72 20,110 0,39 -7,77 -21,113 -14,36 -34,68 -59,96 -24,27 -54,49 -88,66 -34,16 -71,24 -111,24zm-203 -300c0,30 5,59 15,87 9,28 23,53 41,75 18,21 39,39 64,51 25,13 53,20 83,20 32,0 60,-7 86,-21 25,-13 46,-31 63,-53 18,-22 31,-47 40,-75 10,-28 14,-56 14,-84 0,-30 -5,-59 -14,-87 -10,-28 -24,-53 -42,-75 -18,-21 -40,-38 -64,-51 -25,-13 -53,-19 -83,-19 -31,0 -60,7 -85,20 -25,13 -46,31 -63,53 -18,21 -31,46 -41,74 -9,28 -14,56 -14,85z"/>
  <path class="fil0" d="M2115 646l0 -592 205 0c48,0 89,8 125,23 36,16 66,37 90,64 24,26 42,58 54,93 12,36 18,75 18,115 0,45 -7,86 -20,122 -14,37 -33,68 -58,94 -25,26 -55,46 -91,60 -35,14 -74,21 -118,21l-205 0zm416 -297c0,-33 -5,-64 -14,-92 -9,-28 -23,-52 -41,-72 -18,-20 -40,-36 -66,-47 -26,-12 -56,-17 -90,-17l-130 0 0 458 130 0c34,0 65,-5 91,-17 26,-12 48,-28 66,-49 17,-20 31,-44 40,-73 9,-28 14,-58 14,-91z"/>
  <polygon id="1" class="fil0" points="3115,579 3115,646 2713,646 2713,54 3107,54 3107,121 2788,121 2788,312 3065,312 3065,375 2788,375 2788,579 "/>
  <path id="2" class="fil0" d="M3565 178c-7,-8 -16,-15 -27,-22 -11,-8 -23,-14 -37,-20 -14,-6 -29,-11 -46,-14 -16,-4 -33,-6 -51,-6 -46,0 -80,9 -101,26 -22,18 -32,41 -32,71 0,16 3,30 9,40 6,11 15,20 28,27 14,8 30,14 49,20 20,5 43,11 70,17 30,7 58,15 83,23 24,9 45,20 63,33 17,12 31,28 40,46 9,19 14,41 14,68 0,28 -6,53 -17,74 -11,20 -26,38 -45,51 -20,14 -42,24 -68,30 -27,7 -55,10 -85,10 -46,0 -89,-7 -130,-21 -41,-15 -78,-35 -112,-62l36 -64c9,10 21,19 35,28 14,10 30,18 48,26 18,7 38,14 59,18 21,5 42,7 65,7 42,0 75,-7 99,-22 23,-15 35,-38 35,-68 0,-16 -4,-30 -12,-42 -7,-11 -18,-21 -33,-29 -14,-9 -32,-16 -53,-23 -22,-6 -46,-12 -73,-19 -30,-7 -57,-15 -80,-24 -22,-8 -41,-18 -57,-30 -15,-11 -27,-25 -34,-42 -8,-17 -12,-37 -12,-60 0,-29 5,-54 16,-75 10,-22 25,-40 44,-55 19,-15 41,-27 68,-34 26,-8 54,-11 85,-11 40,0 76,6 108,18 32,12 61,29 86,49l-35 61z"/>
  <path id="3" class="fil0" d="M3687 346c0,-36 6,-71 19,-107 12,-35 30,-67 55,-95 24,-28 53,-50 88,-68 35,-17 75,-25 120,-25 53,0 98,11 136,35 37,24 66,55 84,94l-59 38c-9,-19 -20,-35 -32,-47 -13,-13 -27,-23 -41,-31 -15,-8 -30,-14 -46,-17 -15,-3 -31,-5 -46,-5 -32,0 -61,7 -87,21 -25,13 -46,31 -64,53 -17,22 -30,47 -38,74 -9,28 -13,55 -13,83 0,31 5,61 15,89 10,28 25,53 43,75 18,21 40,39 65,51 25,13 52,20 82,20 15,0 31,-2 48,-6 16,-4 32,-10 47,-19 15,-9 29,-20 42,-33 13,-13 24,-28 32,-47l63 34c-10,23 -23,42 -40,59 -17,17 -36,32 -57,43 -22,12 -44,21 -68,27 -24,6 -48,9 -70,9 -41,0 -78,-9 -112,-27 -34,-17 -63,-41 -88,-69 -25,-29 -44,-61 -58,-98 -13,-36 -20,-73 -20,-111z"/>
  <path id="4" class="fil0" d="M4466 54l63 0 242 592 -80 0 -70 -173 -249 0 -69 173 -80 0 243 -592zm138 360l-106 -273 -111 273 217 0z"/>
  <polygon id="5" class="fil0" points="4925,194 4925,646 4850,646 4850,54 4909,54 5276,515 5276,55 5351,55 5351,646 5287,646 "/>
  <path id="6" class="fil0" d="M5841 178c-7,-8 -16,-15 -27,-22 -11,-8 -24,-14 -38,-20 -14,-6 -29,-11 -45,-14 -17,-4 -34,-6 -51,-6 -47,0 -80,9 -102,26 -21,18 -32,41 -32,71 0,16 3,30 9,40 6,11 16,20 29,27 13,8 29,14 49,20 19,5 42,11 69,17 31,7 58,15 83,23 25,9 46,20 63,33 18,12 31,28 40,46 10,19 14,41 14,68 0,28 -5,53 -16,74 -12,20 -27,38 -46,51 -19,14 -42,24 -68,30 -26,7 -54,10 -85,10 -46,0 -89,-7 -130,-21 -41,-15 -78,-35 -111,-62l36 -64c9,10 20,19 34,28 15,10 31,18 49,26 18,7 37,14 58,18 21,5 43,7 66,7 42,0 75,-7 98,-22 23,-15 35,-38 35,-68 0,-16 -4,-30 -11,-42 -8,-11 -19,-21 -33,-29 -15,-9 -32,-16 -54,-23 -21,-6 -46,-12 -73,-19 -30,-7 -56,-15 -79,-24 -23,-8 -42,-18 -57,-30 -16,-11 -27,-25 -35,-42 -8,-17 -12,-37 -12,-60 0,-29 6,-54 16,-75 11,-22 26,-40 45,-55 18,-15 41,-27 67,-34 26,-8 55,-11 85,-11 40,0 76,6 109,18 32,12 61,29 86,49l-35 61z"/>
  <path id="7" class="fil0" d="M6241 650c-42,0 -80,-8 -114,-25 -34,-17 -63,-40 -88,-68 -24,-28 -43,-60 -57,-96 -13,-36 -20,-73 -20,-111 0,-40 7,-77 22,-113 14,-37 33,-69 58,-96 25,-28 55,-50 89,-67 34,-16 72,-24 112,-24 41,0 79,8 113,26 34,17 63,40 88,69 24,28 43,60 56,96 14,36 20,73 20,110 0,39 -7,77 -21,113 -14,36 -34,68 -58,96 -25,27 -55,49 -89,66 -34,16 -71,24 -111,24zm-203 -300c0,30 5,59 15,87 10,28 23,53 41,75 18,21 39,39 64,52 25,12 53,19 84,19 31,0 60,-7 85,-21 25,-13 46,-31 64,-53 17,-22 30,-47 40,-75 9,-28 13,-56 13,-84 0,-30 -4,-59 -14,-87 -10,-28 -24,-53 -42,-74 -18,-22 -39,-39 -64,-52 -25,-13 -52,-19 -82,-19 -32,0 -60,7 -85,20 -25,13 -47,31 -64,53 -18,21 -31,46 -41,74 -9,28 -14,56 -14,85z"/>
  <path class="fil0" d="M836 1744c-41,0 -77,-11 -109,-32 -31,-22 -57,-48 -77,-79l0 296 -45 0 0 -667 42 0 0 94c19,-30 45,-55 77,-74 32,-19 66,-29 102,-29 33,0 63,7 91,21 28,14 52,33 72,55 20,23 36,49 47,79 11,30 17,60 17,91 0,33 -5,64 -16,94 -10,30 -25,56 -44,78 -19,23 -42,40 -69,53 -26,13 -56,20 -88,20zm-11 -41c27,0 52,-6 75,-17 22,-12 41,-27 57,-46 16,-19 28,-41 37,-66 8,-24 12,-49 12,-75 0,-27 -5,-53 -14,-78 -10,-24 -23,-46 -41,-65 -17,-19 -37,-34 -60,-45 -23,-11 -48,-17 -74,-17 -16,0 -34,4 -52,11 -19,7 -36,16 -53,28 -16,12 -30,25 -42,41 -11,15 -18,31 -20,48l0 155c8,18 18,34 30,50 13,15 26,28 41,40 16,11 32,20 50,26 17,7 35,10 54,10z"/>
  <path id="1" class="fil0" d="M1278 1744c-21,0 -42,-4 -61,-11 -18,-8 -35,-18 -49,-31 -14,-13 -26,-29 -33,-47 -8,-18 -12,-37 -12,-58 0,-20 5,-39 14,-56 10,-17 24,-32 41,-44 17,-13 38,-22 62,-29 24,-7 51,-11 80,-11 26,0 51,3 77,7 26,5 49,11 70,19l0 -47c0,-45 -13,-80 -39,-107 -25,-26 -60,-39 -103,-39 -23,0 -48,5 -73,14 -26,10 -53,24 -79,42l-17 -31c60,-41 118,-62 172,-62 57,0 102,17 135,50 33,33 49,79 49,137l0 231c0,15 7,23 20,23l0 41c-3,0 -6,1 -9,1 -4,0 -7,1 -9,1 -12,0 -22,-4 -29,-13 -7,-8 -12,-18 -13,-29l0 -39c-22,28 -50,50 -84,65 -34,15 -70,23 -110,23zm9 -36c36,0 68,-7 97,-20 30,-14 52,-31 68,-53 10,-13 15,-25 15,-37l0 -83c-22,-9 -45,-15 -69,-19 -23,-5 -48,-7 -73,-7 -24,0 -45,3 -65,8 -19,5 -36,12 -50,21 -14,9 -25,20 -32,33 -8,14 -12,28 -12,44 0,15 3,30 10,44 6,14 14,26 25,36 11,10 24,18 39,24 15,6 30,9 47,9z"/>
  <path id="2" class="fil0" d="M1874 1303c-42,1 -79,13 -111,37 -32,24 -54,57 -67,99l0 296 -45 0 0 -473 43 0 0 116c17,-33 38,-60 65,-81 27,-21 56,-33 87,-36 6,-1 12,-1 17,-1 4,0 8,0 11,0l0 43z"/>
  <path id="3" class="fil0" d="M2071 1744c-22,0 -42,-4 -61,-11 -19,-8 -35,-18 -50,-31 -14,-13 -25,-29 -33,-47 -8,-18 -12,-37 -12,-58 0,-20 5,-39 15,-56 10,-17 23,-32 40,-44 18,-13 38,-22 63,-29 24,-7 51,-11 80,-11 25,0 51,3 77,7 25,5 49,11 69,19l0 -47c0,-45 -12,-80 -38,-107 -25,-26 -60,-39 -104,-39 -23,0 -47,5 -73,14 -26,10 -52,24 -79,42l-17 -31c61,-41 118,-62 173,-62 57,0 102,17 135,50 32,33 49,79 49,137l0 231c0,15 6,23 20,23l0 41c-3,0 -6,1 -10,1 -3,0 -6,1 -8,1 -13,0 -22,-4 -29,-13 -8,-8 -12,-18 -13,-29l0 -39c-22,28 -50,50 -84,65 -34,15 -71,23 -110,23zm9 -36c35,0 68,-7 97,-20 29,-14 52,-31 68,-53 9,-13 14,-25 14,-37l0 -83c-22,-9 -44,-15 -68,-19 -24,-5 -48,-7 -74,-7 -23,0 -45,3 -64,8 -20,5 -36,12 -50,21 -14,9 -25,20 -33,33 -7,14 -11,28 -11,44 0,15 3,30 9,44 6,14 15,26 26,36 11,10 23,18 38,24 15,6 31,9 48,9z"/>
  <path id="4" class="fil0" d="M2888 1712c-2,1 -6,4 -12,7 -6,3 -13,6 -22,9 -9,3 -19,6 -30,9 -11,2 -22,3 -35,3 -13,0 -25,-2 -36,-5 -11,-4 -21,-9 -30,-17 -8,-7 -15,-16 -20,-26 -4,-10 -7,-22 -7,-36l0 -357 -66 0 0 -37 66 0 0 -162 46 0 0 162 110 0 0 37 -110 0 0 346c0,17 6,31 18,39 12,9 26,14 41,14 19,0 35,-4 48,-10 14,-6 22,-11 25,-12l14 36z"/>
  <path id="5" class="fil0" d="M3155 1744c-34,0 -64,-7 -93,-20 -28,-13 -52,-30 -73,-53 -21,-22 -37,-48 -48,-78 -12,-30 -17,-61 -17,-94 0,-33 5,-65 17,-94 12,-30 28,-56 49,-79 21,-22 45,-40 73,-53 28,-13 59,-20 92,-20 32,0 63,7 91,20 28,13 52,31 73,53 21,23 37,49 49,79 12,29 18,61 18,94 0,33 -6,64 -18,94 -12,30 -28,56 -49,78 -20,23 -45,40 -73,53 -28,13 -59,20 -91,20zm-186 -243c0,28 5,54 15,79 9,24 23,46 39,64 17,18 36,32 59,43 22,11 46,16 72,16 25,0 49,-5 72,-16 22,-11 42,-25 59,-44 17,-19 30,-41 40,-65 10,-25 14,-51 14,-80 0,-28 -4,-54 -14,-78 -10,-25 -23,-47 -40,-65 -17,-19 -37,-33 -59,-44 -22,-11 -46,-17 -71,-17 -26,0 -50,6 -72,17 -23,11 -42,26 -59,44 -17,19 -30,41 -40,66 -10,26 -15,52 -15,80z"/>
  <path id="6" class="fil0" d="M4190 1735l-45 0 0 -264c0,-60 -9,-104 -28,-133 -18,-28 -47,-43 -85,-43 -19,0 -38,4 -56,11 -17,8 -33,18 -48,31 -14,13 -27,28 -38,46 -10,18 -19,38 -25,60l0 292 -45 0 0 -264c0,-61 -9,-105 -27,-133 -19,-29 -47,-43 -85,-43 -19,0 -38,4 -55,11 -17,7 -33,17 -48,30 -14,13 -27,28 -39,46 -11,18 -19,38 -25,60l0 293 -46 0 0 -473 43 0 0 112c19,-38 45,-67 76,-89 32,-21 67,-32 105,-32 40,0 72,12 97,36 25,24 40,55 45,93 45,-86 107,-129 186,-129 51,0 88,19 110,55 22,37 33,89 33,155l0 272z"/>
  <path id="7" class="fil0" d="M4444 1744c-22,0 -42,-4 -61,-11 -19,-8 -35,-18 -49,-31 -15,-13 -26,-29 -34,-47 -8,-18 -11,-37 -11,-58 0,-20 4,-39 14,-56 10,-17 23,-32 41,-44 17,-13 38,-22 62,-29 24,-7 51,-11 80,-11 25,0 51,3 77,7 26,5 49,11 70,19l0 -47c0,-45 -13,-80 -39,-107 -25,-26 -60,-39 -103,-39 -23,0 -48,5 -74,14 -25,10 -52,24 -78,42l-18 -31c61,-41 119,-62 173,-62 57,0 102,17 135,50 33,33 49,79 49,137l0 231c0,15 7,23 20,23l0 41c-3,0 -6,1 -10,1 -3,0 -6,1 -8,1 -12,0 -22,-4 -29,-13 -8,-8 -12,-18 -13,-29l0 -39c-22,28 -50,50 -84,65 -34,15 -70,23 -110,23zm9 -36c35,0 68,-7 97,-20 30,-14 52,-31 68,-53 10,-13 15,-25 15,-37l0 -83c-22,-9 -45,-15 -69,-19 -23,-5 -48,-7 -73,-7 -24,0 -46,3 -65,8 -19,5 -36,12 -50,21 -14,9 -25,20 -32,33 -8,14 -12,28 -12,44 0,15 3,30 9,44 6,14 15,26 26,36 11,10 24,18 38,24 15,6 31,9 48,9z"/>
  <path id="8" class="fil0" d="M5040 1303c-42,1 -79,13 -111,37 -32,24 -54,57 -67,99l0 296 -46 0 0 -473 44 0 0 116c16,-33 38,-60 65,-81 27,-21 56,-33 87,-36 6,-1 12,-1 16,-1 5,0 9,0 12,0l0 43z"/>
 </g>
</svg>
